<svg id="svg" version="1.1" xmlns="http://www.w3.org/2000/svg" xmlns:xlink="http://www.w3.org/1999/xlink" width="400" height="226.04166666666666" viewBox="0, 0, 400,226.04166666666666"><g id="svgg"><path id="path0" d="M213.680 16.662 C 213.351 16.762,212.097 19.122,212.097 19.641 C 212.097 19.782,211.995 19.898,211.871 19.898 C 211.747 19.898,211.645 20.032,211.645 20.195 C 211.645 20.358,211.430 20.943,211.167 21.495 C 210.179 23.566,208.410 27.306,207.643 28.943 C 207.206 29.876,206.389 31.605,205.828 32.787 C 205.266 33.968,204.474 35.647,204.068 36.518 C 203.301 38.162,202.311 40.271,200.924 43.212 C 200.478 44.158,200.113 45.048,200.113 45.190 C 200.113 45.333,200.011 45.449,199.887 45.449 C 199.763 45.449,199.661 45.595,199.661 45.772 C 199.661 45.950,199.328 46.738,198.922 47.525 C 197.847 49.603,197.469 51.233,197.941 51.754 C 198.141 51.975,198.304 52.332,198.304 52.547 C 198.304 52.762,198.406 52.875,198.530 52.798 C 198.656 52.720,198.769 52.914,198.785 53.237 C 198.826 54.093,198.853 54.214,199.039 54.400 C 199.132 54.493,199.209 54.756,199.209 54.984 C 199.209 55.221,199.378 55.406,199.604 55.416 C 199.822 55.426,199.884 55.482,199.741 55.540 C 199.452 55.659,199.839 56.981,200.163 56.981 C 200.260 56.981,200.339 57.237,200.339 57.550 C 200.339 57.862,200.432 58.295,200.546 58.511 C 200.660 58.727,200.920 59.287,201.125 59.757 C 201.329 60.226,201.592 60.550,201.709 60.478 C 201.829 60.404,201.922 60.748,201.922 61.264 C 201.922 61.769,202.024 62.182,202.148 62.182 C 202.272 62.182,202.374 62.430,202.374 62.734 C 202.374 63.038,202.476 63.349,202.600 63.426 C 202.725 63.503,202.826 63.817,202.826 64.124 C 202.826 64.432,202.979 64.742,203.166 64.814 C 203.352 64.885,203.505 65.136,203.505 65.372 C 203.505 65.607,203.632 65.801,203.787 65.803 C 203.976 65.806,203.957 65.880,203.731 66.026 C 203.505 66.172,203.486 66.246,203.674 66.249 C 203.830 66.251,203.957 66.507,203.957 66.817 C 203.957 67.128,204.059 67.383,204.183 67.383 C 204.308 67.383,204.409 67.691,204.409 68.068 C 204.409 68.469,204.550 68.808,204.748 68.884 C 204.935 68.955,205.088 69.257,205.088 69.555 C 205.088 69.853,205.189 70.096,205.314 70.096 C 205.438 70.096,205.540 70.395,205.540 70.761 C 205.540 71.127,205.642 71.489,205.766 71.566 C 205.890 71.643,205.992 71.903,205.992 72.144 C 205.992 72.386,206.094 72.583,206.218 72.583 C 206.343 72.583,206.444 72.830,206.444 73.133 C 206.444 73.435,206.597 73.834,206.783 74.021 C 206.970 74.207,207.123 74.577,207.123 74.842 C 207.123 75.107,207.224 75.261,207.349 75.184 C 207.483 75.101,207.575 75.365,207.575 75.835 C 207.575 76.271,207.677 76.690,207.801 76.767 C 207.925 76.843,208.027 77.104,208.027 77.345 C 208.027 77.587,208.180 77.784,208.366 77.784 C 208.603 77.784,208.705 78.023,208.705 78.575 C 208.705 79.011,208.807 79.367,208.932 79.367 C 209.056 79.367,209.158 79.627,209.158 79.946 C 209.158 80.274,209.256 80.464,209.384 80.384 C 209.515 80.303,209.610 80.527,209.610 80.920 C 209.610 81.292,209.769 81.755,209.964 81.949 C 210.158 82.144,210.253 82.406,210.175 82.532 C 210.097 82.659,210.193 82.823,210.387 82.897 C 210.612 82.984,210.741 83.313,210.741 83.800 C 210.741 84.222,210.842 84.568,210.967 84.568 C 211.091 84.568,211.193 84.833,211.193 85.157 C 211.193 85.582,211.285 85.711,211.524 85.619 C 211.783 85.520,211.828 85.631,211.730 86.123 C 211.654 86.501,211.725 86.887,211.907 87.083 C 212.356 87.569,212.847 88.483,212.566 88.309 C 212.433 88.226,212.323 88.266,212.323 88.398 C 212.323 88.530,212.425 88.638,212.549 88.638 C 212.674 88.638,212.776 88.792,212.776 88.980 C 212.776 89.325,212.841 89.488,213.529 90.861 C 213.736 91.275,213.906 91.809,213.906 92.048 C 213.906 92.286,214.008 92.482,214.132 92.482 C 214.257 92.482,214.358 92.730,214.358 93.034 C 214.358 93.337,214.460 93.648,214.585 93.725 C 214.709 93.802,214.811 94.113,214.811 94.417 C 214.811 94.773,214.939 94.969,215.174 94.969 C 215.389 94.969,215.489 95.095,215.418 95.280 C 215.352 95.451,215.443 95.870,215.620 96.210 C 215.797 96.551,215.941 97.021,215.941 97.256 C 215.941 97.490,216.043 97.682,216.167 97.682 C 216.292 97.682,216.393 97.975,216.393 98.333 C 216.393 98.691,216.546 99.110,216.733 99.265 C 216.919 99.420,217.072 99.687,217.072 99.858 C 217.072 100.029,217.174 100.170,217.298 100.170 C 217.422 100.170,217.524 100.526,217.524 100.961 C 217.524 101.396,217.626 101.752,217.750 101.752 C 217.875 101.752,217.976 102.007,217.976 102.318 C 217.976 102.629,218.078 102.883,218.202 102.883 C 218.327 102.883,218.428 103.067,218.428 103.292 C 218.428 103.517,218.578 103.899,218.760 104.140 C 218.943 104.381,219.097 104.833,219.103 105.144 C 219.112 105.593,219.159 105.640,219.333 105.370 C 219.493 105.122,219.553 105.288,219.556 105.992 C 219.558 106.521,219.661 106.953,219.785 106.953 C 219.910 106.953,220.011 107.218,220.011 107.543 C 220.011 107.974,220.102 108.097,220.350 108.002 C 220.617 107.900,220.690 108.064,220.690 108.769 C 220.690 109.263,220.791 109.666,220.916 109.666 C 221.040 109.666,221.142 109.864,221.142 110.105 C 221.142 110.347,221.244 110.607,221.368 110.684 C 221.492 110.761,221.594 111.066,221.594 111.362 C 221.594 111.659,221.696 111.964,221.820 112.041 C 221.945 112.118,222.046 112.381,222.046 112.626 C 222.046 112.872,222.199 113.131,222.386 113.203 C 222.595 113.283,222.725 113.627,222.725 114.100 C 222.725 114.522,222.826 114.867,222.951 114.867 C 223.075 114.867,223.177 115.122,223.177 115.432 C 223.177 115.759,223.307 115.998,223.485 115.998 C 223.684 115.998,223.757 116.181,223.693 116.520 C 223.634 116.825,223.742 117.166,223.950 117.339 C 224.147 117.502,224.308 117.884,224.308 118.187 C 224.308 118.497,224.407 118.677,224.534 118.598 C 224.665 118.517,224.760 118.742,224.760 119.137 C 224.760 119.510,224.862 119.878,224.986 119.955 C 225.110 120.032,225.212 120.280,225.212 120.506 C 225.212 120.732,225.365 121.044,225.551 121.198 C 225.738 121.353,225.890 121.722,225.890 122.018 C 225.890 122.313,225.992 122.555,226.116 122.555 C 226.241 122.555,226.343 122.854,226.343 123.220 C 226.343 123.586,226.444 123.948,226.569 124.025 C 226.693 124.102,226.795 124.357,226.795 124.592 C 226.795 124.827,226.957 125.110,227.154 125.221 C 227.352 125.332,227.505 125.489,227.493 125.571 C 227.415 126.150,227.505 126.406,227.738 126.262 C 227.909 126.156,227.957 126.217,227.873 126.435 C 227.748 126.761,228.067 127.052,229.251 127.693 C 229.545 127.852,229.882 127.982,230.000 127.982 C 230.118 127.982,230.793 128.245,231.501 128.565 C 232.208 128.886,232.990 129.227,233.239 129.322 C 234.103 129.652,240.480 132.829,241.345 133.361 C 241.824 133.655,242.638 134.131,243.154 134.419 C 244.389 135.110,247.110 136.884,247.824 137.465 C 248.135 137.718,248.516 137.926,248.672 137.928 C 248.827 137.930,248.954 138.011,248.954 138.108 C 248.954 138.206,249.277 138.477,249.672 138.710 C 250.419 139.151,251.012 139.603,251.639 140.209 C 251.841 140.404,252.363 140.806,252.798 141.102 C 253.233 141.398,253.640 141.697,253.703 141.766 C 253.765 141.834,254.477 142.444,255.285 143.119 C 257.127 144.658,263.689 151.228,264.897 152.742 C 265.393 153.363,266.007 154.076,266.261 154.324 C 266.515 154.573,267.124 155.336,267.614 156.020 C 268.103 156.704,268.608 157.373,268.735 157.506 C 268.862 157.640,269.220 158.122,269.531 158.579 C 269.842 159.035,270.172 159.410,270.266 159.411 C 270.359 159.411,270.435 159.616,270.435 159.864 C 270.435 160.113,270.566 160.317,270.726 160.317 C 271.081 160.317,271.185 159.466,270.906 158.847 C 270.794 158.598,270.643 158.210,270.570 157.985 C 270.498 157.759,270.336 157.638,270.211 157.715 C 270.074 157.799,269.983 157.538,269.983 157.065 C 269.983 156.629,269.881 156.210,269.757 156.133 C 269.633 156.057,269.531 155.796,269.531 155.555 C 269.531 155.313,269.429 155.116,269.305 155.116 C 269.180 155.116,269.079 154.807,269.079 154.430 C 269.079 154.030,268.938 153.691,268.739 153.615 C 268.553 153.543,268.400 153.241,268.400 152.944 C 268.400 152.646,268.298 152.402,268.174 152.402 C 268.050 152.402,267.948 152.103,267.948 151.737 C 267.948 151.372,267.846 151.010,267.722 150.933 C 267.598 150.856,267.496 150.606,267.496 150.378 C 267.496 150.150,267.343 149.905,267.157 149.833 C 266.958 149.757,266.817 149.419,266.817 149.018 C 266.817 148.641,266.716 148.332,266.591 148.332 C 266.467 148.332,266.365 148.078,266.365 147.767 C 266.365 147.456,266.263 147.202,266.139 147.202 C 266.015 147.202,265.913 146.982,265.913 146.712 C 265.913 146.117,265.219 144.488,264.965 144.488 C 264.865 144.488,264.782 144.183,264.782 143.810 C 264.782 143.437,264.681 143.132,264.556 143.132 C 264.432 143.132,264.330 142.877,264.330 142.566 C 264.330 142.256,264.228 142.001,264.104 142.001 C 263.980 142.001,263.878 141.693,263.878 141.316 C 263.878 140.915,263.737 140.576,263.539 140.500 C 263.352 140.429,263.200 140.176,263.200 139.939 C 263.200 139.702,263.098 139.306,262.973 139.059 C 262.849 138.812,262.646 138.407,262.521 138.160 C 262.397 137.913,262.295 137.517,262.295 137.280 C 262.295 137.043,262.142 136.790,261.956 136.719 C 261.758 136.643,261.617 136.304,261.617 135.903 C 261.617 135.526,261.515 135.218,261.391 135.218 C 261.266 135.218,261.164 134.957,261.164 134.639 C 261.164 134.311,261.067 134.121,260.938 134.200 C 260.814 134.277,260.712 134.115,260.712 133.837 C 260.712 133.294,260.032 131.600,259.814 131.600 C 259.740 131.600,259.658 131.324,259.630 130.988 C 259.602 130.651,259.478 130.275,259.354 130.151 C 259.231 130.028,259.129 129.743,259.129 129.520 C 259.129 129.296,258.970 129.112,258.775 129.112 C 258.521 129.112,258.462 128.982,258.568 128.649 C 258.654 128.378,258.567 127.960,258.357 127.640 C 258.160 127.339,257.999 126.880,257.999 126.620 C 257.999 126.359,257.897 126.209,257.773 126.286 C 257.641 126.367,257.547 126.142,257.547 125.747 C 257.547 125.374,257.445 125.006,257.321 124.929 C 257.196 124.852,257.094 124.530,257.094 124.213 C 257.094 123.794,257.002 123.673,256.755 123.767 C 256.494 123.868,256.416 123.718,256.416 123.113 C 256.416 122.682,256.314 122.329,256.190 122.329 C 256.066 122.329,255.964 122.081,255.964 121.777 C 255.964 121.473,255.862 121.162,255.738 121.085 C 255.613 121.008,255.512 120.657,255.512 120.305 C 255.512 119.944,255.363 119.607,255.172 119.534 C 254.986 119.462,254.833 119.203,254.833 118.958 C 254.833 118.712,254.731 118.449,254.607 118.372 C 254.483 118.295,254.381 117.990,254.381 117.694 C 254.381 117.397,254.279 117.092,254.155 117.015 C 254.031 116.938,253.929 116.672,253.929 116.423 C 253.929 116.175,253.834 116.030,253.718 116.101 C 253.603 116.173,253.444 116.128,253.366 116.001 C 253.288 115.875,253.343 115.772,253.489 115.772 C 253.661 115.772,253.618 115.563,253.366 115.178 C 253.100 114.773,253.074 114.635,253.283 114.743 C 253.452 114.830,253.412 114.755,253.194 114.576 C 252.976 114.398,252.798 113.989,252.798 113.668 C 252.798 113.348,252.696 113.022,252.572 112.945 C 252.448 112.868,252.346 112.608,252.346 112.367 C 252.346 112.125,252.244 111.928,252.120 111.928 C 251.995 111.928,251.894 111.689,251.894 111.397 C 251.894 111.105,251.697 110.639,251.456 110.361 C 251.215 110.083,251.073 109.712,251.141 109.535 C 251.208 109.359,251.151 109.214,251.013 109.214 C 250.876 109.214,250.762 109.036,250.760 108.819 C 250.754 108.187,250.156 106.638,249.882 106.546 C 249.745 106.501,249.633 106.166,249.633 105.804 C 249.633 105.441,249.531 105.144,249.406 105.144 C 249.282 105.144,249.180 104.890,249.180 104.579 C 249.180 104.268,249.079 104.014,248.954 104.014 C 248.830 104.014,248.728 103.839,248.728 103.625 C 248.728 102.992,248.008 101.299,247.795 101.431 C 247.686 101.498,247.598 101.191,247.598 100.748 C 247.598 100.306,247.496 99.943,247.371 99.943 C 247.247 99.943,247.145 99.740,247.145 99.491 C 247.145 99.243,247.044 99.039,246.919 99.039 C 246.795 99.039,246.693 98.741,246.693 98.377 C 246.693 98.013,246.540 97.562,246.354 97.375 C 246.167 97.189,246.015 96.882,246.015 96.694 C 246.015 96.506,245.913 96.289,245.789 96.213 C 245.664 96.136,245.562 95.780,245.562 95.421 C 245.562 95.063,245.461 94.707,245.336 94.630 C 245.212 94.553,245.110 94.292,245.110 94.051 C 245.110 93.810,244.958 93.612,244.771 93.612 C 244.534 93.612,244.432 93.374,244.432 92.821 C 244.432 92.386,244.330 92.029,244.206 92.029 C 244.081 92.029,243.980 91.832,243.980 91.591 C 243.980 91.349,243.878 91.089,243.754 91.012 C 243.629 90.935,243.527 90.683,243.527 90.452 C 243.527 89.997,242.844 88.572,242.566 88.449 C 242.473 88.408,242.397 88.026,242.397 87.601 C 242.397 87.176,242.295 86.829,242.171 86.829 C 242.046 86.829,241.945 86.574,241.945 86.263 C 241.945 85.953,241.843 85.698,241.718 85.698 C 241.594 85.698,241.492 85.456,241.492 85.161 C 241.492 84.865,241.340 84.496,241.153 84.341 C 240.967 84.187,240.814 83.875,240.814 83.649 C 240.814 83.423,240.712 83.175,240.588 83.098 C 240.464 83.021,240.362 82.659,240.362 82.293 C 240.362 81.927,240.260 81.628,240.136 81.628 C 240.011 81.628,239.910 81.385,239.910 81.087 C 239.910 80.789,239.757 80.487,239.570 80.416 C 239.384 80.344,239.231 80.034,239.231 79.726 C 239.231 79.419,239.129 79.105,239.005 79.028 C 238.881 78.951,238.779 78.690,238.779 78.449 C 238.779 78.208,238.677 78.010,238.553 78.010 C 238.428 78.010,238.327 77.654,238.327 77.219 C 238.327 76.666,238.224 76.427,237.988 76.427 C 237.774 76.427,237.648 76.212,237.648 75.849 C 237.648 75.521,237.551 75.331,237.422 75.410 C 237.290 75.491,237.196 75.260,237.196 74.855 C 237.196 74.473,237.102 73.983,236.987 73.767 C 236.871 73.551,236.719 73.190,236.649 72.965 C 236.575 72.727,236.411 72.622,236.260 72.716 C 236.076 72.830,236.044 72.701,236.150 72.278 C 236.243 71.907,236.207 71.679,236.057 71.679 C 235.922 71.679,235.876 71.577,235.953 71.453 C 236.029 71.328,235.985 71.227,235.853 71.227 C 235.721 71.227,235.613 70.927,235.613 70.562 C 235.613 70.196,235.512 69.834,235.387 69.757 C 235.263 69.680,235.161 69.369,235.161 69.065 C 235.161 68.762,235.059 68.513,234.935 68.513 C 234.811 68.513,234.709 68.317,234.709 68.077 C 234.709 67.837,234.556 67.488,234.370 67.302 C 234.183 67.115,234.031 66.752,234.031 66.494 C 234.031 66.237,233.929 66.026,233.804 66.026 C 233.680 66.026,233.577 65.848,233.575 65.630 C 233.569 64.999,232.971 63.449,232.698 63.358 C 232.560 63.312,232.448 62.978,232.448 62.615 C 232.448 62.253,232.346 61.956,232.222 61.956 C 232.097 61.956,231.995 61.702,231.995 61.391 C 231.995 61.080,231.894 60.825,231.769 60.825 C 231.645 60.825,231.543 60.625,231.543 60.381 C 231.543 59.885,230.846 58.267,230.582 58.150 C 230.489 58.108,230.413 57.834,230.413 57.541 C 230.413 57.248,230.311 56.945,230.187 56.868 C 230.062 56.791,229.960 56.480,229.960 56.177 C 229.960 55.873,229.870 55.625,229.759 55.625 C 229.649 55.625,229.484 55.243,229.393 54.777 C 229.254 54.060,229.200 53.999,229.045 54.381 C 228.907 54.721,228.858 54.594,228.846 53.872 C 228.837 53.344,228.728 52.911,228.604 52.911 C 228.479 52.911,228.378 52.663,228.378 52.359 C 228.378 52.056,228.276 51.744,228.151 51.668 C 228.027 51.591,227.925 51.327,227.925 51.082 C 227.925 50.837,227.773 50.577,227.586 50.506 C 227.395 50.432,227.247 50.096,227.247 49.735 C 227.247 49.382,227.145 49.031,227.021 48.954 C 226.897 48.877,226.795 48.566,226.795 48.263 C 226.795 47.959,226.693 47.711,226.569 47.711 C 226.444 47.711,226.343 47.472,226.343 47.180 C 226.343 46.548,225.719 45.223,225.422 45.223 C 225.306 45.223,225.212 44.867,225.212 44.432 C 225.212 43.997,225.110 43.640,224.986 43.640 C 224.862 43.640,224.760 43.386,224.760 43.075 C 224.760 42.764,224.652 42.510,224.520 42.510 C 224.389 42.510,224.353 42.627,224.442 42.771 C 224.540 42.930,224.504 42.971,224.350 42.875 C 224.206 42.786,224.151 42.445,224.223 42.086 C 224.306 41.670,224.226 41.330,223.989 41.093 C 223.791 40.895,223.629 40.567,223.629 40.365 C 223.629 40.162,223.527 40.059,223.403 40.136 C 223.269 40.219,223.177 39.954,223.177 39.484 C 223.177 39.049,223.075 38.630,222.951 38.553 C 222.826 38.476,222.725 38.221,222.725 37.985 C 222.725 37.750,222.579 37.476,222.401 37.377 C 222.223 37.277,222.035 36.941,221.983 36.630 C 221.877 35.989,221.657 35.342,221.351 34.768 C 221.236 34.553,221.142 34.177,221.142 33.934 C 221.142 33.406,220.776 33.119,220.614 33.520 C 220.551 33.677,220.491 33.423,220.481 32.956 C 220.472 32.490,220.362 32.109,220.237 32.109 C 220.113 32.109,220.011 31.809,220.011 31.444 C 220.011 31.078,219.910 30.716,219.785 30.639 C 219.661 30.562,219.559 30.251,219.559 29.947 C 219.559 29.644,219.465 29.395,219.351 29.395 C 219.236 29.395,219.076 29.090,218.994 28.717 C 218.912 28.344,218.751 28.038,218.637 28.038 C 218.522 28.038,218.428 27.784,218.428 27.473 C 218.428 27.162,218.327 26.908,218.202 26.908 C 218.078 26.908,217.976 26.552,217.976 26.116 C 217.976 25.681,217.875 25.325,217.750 25.325 C 217.626 25.325,217.524 25.118,217.524 24.866 C 217.524 24.613,217.371 24.348,217.185 24.276 C 216.992 24.202,216.846 23.865,216.846 23.492 C 216.846 23.132,216.744 22.838,216.620 22.838 C 216.495 22.838,216.393 22.583,216.393 22.272 C 216.393 21.962,216.314 21.707,216.217 21.707 C 216.119 21.707,216.017 21.427,215.990 21.085 C 215.963 20.743,215.788 20.351,215.602 20.212 C 215.415 20.074,215.263 19.744,215.263 19.478 C 215.263 19.212,215.161 18.994,215.037 18.994 C 214.912 18.994,214.811 18.695,214.811 18.329 C 214.811 17.963,214.709 17.601,214.585 17.524 C 214.460 17.447,214.358 17.187,214.358 16.945 C 214.358 16.502,214.294 16.475,213.680 16.662 " stroke="none" fill="#047434" fill-rule="evenodd"></path><path id="path1" d="M346.696 176.545 C 346.418 176.884,346.189 177.275,346.187 177.413 C 346.186 177.551,345.930 177.855,345.619 178.089 C 345.308 178.322,345.053 178.616,345.052 178.742 C 345.051 178.868,344.744 179.212,344.371 179.507 C 343.998 179.802,343.536 180.372,343.345 180.775 C 343.154 181.177,342.748 181.640,342.443 181.803 C 342.138 181.966,341.888 182.236,341.888 182.401 C 341.888 182.567,341.786 182.702,341.662 182.702 C 340.854 182.702,341.484 184.369,342.736 185.543 C 344.242 186.955,345.506 187.111,345.506 185.884 C 345.506 185.751,345.659 185.642,345.845 185.642 C 346.032 185.642,346.184 185.557,346.184 185.454 C 346.184 185.350,346.461 185.121,346.799 184.945 C 347.137 184.768,348.188 183.853,349.134 182.911 C 350.080 181.969,351.025 181.132,351.233 181.053 C 351.441 180.973,351.611 180.802,351.611 180.674 C 351.611 180.546,351.764 180.441,351.950 180.441 C 352.137 180.441,352.289 180.338,352.289 180.212 C 352.289 179.888,351.309 178.412,351.092 178.409 C 350.826 178.405,349.802 177.334,349.802 177.059 C 349.802 176.929,349.672 176.823,349.513 176.823 C 349.354 176.823,349.077 176.620,348.898 176.371 C 348.412 175.697,347.320 175.783,346.696 176.545 M154.890 184.984 C 154.890 189.250,154.867 189.486,154.462 189.486 C 154.226 189.486,153.975 189.333,153.904 189.146 C 153.828 188.950,153.490 188.807,153.101 188.807 C 152.732 188.807,152.366 188.705,152.289 188.581 C 152.213 188.457,151.393 188.355,150.467 188.355 C 149.496 188.355,148.785 188.451,148.785 188.581 C 148.785 188.705,148.428 188.807,147.993 188.807 C 147.440 188.807,147.202 188.910,147.202 189.146 C 147.202 189.357,146.988 189.486,146.637 189.486 C 146.326 189.486,146.071 189.587,146.071 189.712 C 146.071 189.836,145.937 189.938,145.773 189.938 C 145.402 189.938,144.036 191.135,144.036 191.461 C 144.036 191.592,143.784 191.939,143.475 192.232 C 143.166 192.525,142.912 192.942,142.910 193.160 C 142.907 193.378,142.804 193.556,142.679 193.556 C 142.555 193.556,142.453 193.810,142.453 194.121 C 142.453 194.432,142.352 194.686,142.227 194.686 C 142.103 194.686,142.001 195.136,142.001 195.685 C 142.001 196.251,141.886 196.722,141.735 196.772 C 141.340 196.904,141.317 202.610,141.710 203.012 C 141.870 203.177,142.001 203.711,142.001 204.199 C 142.001 204.688,142.103 205.088,142.227 205.088 C 142.352 205.088,142.453 205.393,142.453 205.766 C 142.453 206.139,142.555 206.444,142.679 206.444 C 142.804 206.444,142.906 206.581,142.906 206.749 C 142.906 206.916,143.090 207.266,143.315 207.526 C 143.541 207.786,143.921 208.259,144.160 208.578 C 144.400 208.897,144.724 209.158,144.881 209.158 C 145.038 209.158,145.167 209.259,145.167 209.384 C 145.167 209.508,145.370 209.610,145.619 209.610 C 145.870 209.610,146.071 209.761,146.071 209.949 C 146.071 210.160,146.285 210.288,146.637 210.288 C 146.947 210.288,147.202 210.390,147.202 210.514 C 147.202 210.653,148.295 210.741,150.028 210.741 C 151.762 210.741,152.855 210.653,152.855 210.514 C 152.855 210.390,153.109 210.288,153.420 210.288 C 153.772 210.288,153.985 210.160,153.985 209.949 C 153.985 209.761,154.186 209.610,154.438 209.610 C 154.686 209.610,154.890 209.508,154.890 209.384 C 154.890 209.259,155.144 209.158,155.455 209.158 C 155.907 209.158,156.020 209.271,156.020 209.723 L 156.020 210.288 158.621 210.288 L 161.221 210.288 161.221 195.385 L 161.221 180.482 158.055 180.482 L 154.890 180.482 154.890 184.984 M254.519 180.605 C 254.443 180.680,254.381 182.710,254.381 185.114 C 254.381 189.252,254.358 189.486,253.953 189.486 C 253.718 189.486,253.466 189.333,253.395 189.146 C 253.319 188.950,252.981 188.807,252.593 188.807 C 252.223 188.807,251.858 188.705,251.781 188.581 C 251.704 188.457,250.941 188.355,250.085 188.355 C 249.229 188.355,248.466 188.457,248.389 188.581 C 248.312 188.705,247.899 188.807,247.471 188.807 C 246.930 188.807,246.693 188.911,246.693 189.146 C 246.693 189.339,246.490 189.486,246.225 189.486 C 245.640 189.486,245.027 190.072,245.244 190.423 C 245.350 190.595,245.307 190.625,245.120 190.509 C 244.838 190.335,243.075 191.965,243.075 192.401 C 243.075 192.512,242.923 192.661,242.736 192.733 C 242.549 192.805,242.397 193.019,242.397 193.209 C 242.397 193.400,242.295 193.556,242.171 193.556 C 242.046 193.556,241.945 193.912,241.945 194.347 C 241.945 194.782,241.843 195.138,241.718 195.138 C 241.594 195.138,241.492 195.604,241.492 196.172 C 241.492 196.790,241.356 197.342,241.153 197.545 C 240.903 197.795,240.814 198.407,240.814 199.875 C 240.814 201.370,240.899 201.937,241.153 202.148 C 241.378 202.334,241.492 202.841,241.492 203.646 C 241.492 204.314,241.594 204.862,241.718 204.862 C 241.843 204.862,241.945 205.116,241.945 205.427 C 241.945 205.738,242.046 205.992,242.171 205.992 C 242.295 205.992,242.397 206.246,242.397 206.557 C 242.397 206.909,242.525 207.123,242.736 207.123 C 242.924 207.123,243.075 207.324,243.075 207.575 C 243.075 207.824,243.177 208.027,243.301 208.027 C 243.426 208.027,243.527 208.136,243.527 208.269 C 243.527 208.582,244.103 209.158,244.416 209.158 C 244.549 209.158,244.658 209.259,244.658 209.384 C 244.658 209.508,244.862 209.610,245.110 209.610 C 245.361 209.610,245.562 209.761,245.562 209.949 C 245.562 210.160,245.776 210.288,246.128 210.288 C 246.439 210.288,246.693 210.390,246.693 210.514 C 246.693 210.653,247.781 210.741,249.506 210.741 C 251.138 210.741,252.378 210.646,252.459 210.514 C 252.536 210.390,252.792 210.288,253.027 210.288 C 253.263 210.288,253.710 210.034,254.021 209.723 C 254.332 209.412,254.735 209.158,254.917 209.158 C 255.099 209.158,255.299 209.031,255.362 208.875 C 255.425 208.720,255.484 208.974,255.494 209.440 L 255.512 210.288 258.112 210.288 L 260.712 210.288 260.712 195.380 L 260.712 180.471 257.684 180.469 C 256.019 180.468,254.594 180.529,254.519 180.605 M287.168 193.778 C 287.168 205.388,287.211 207.091,287.507 207.204 C 287.694 207.276,287.849 207.617,287.852 207.964 C 287.856 208.413,288.171 208.899,288.953 209.666 L 290.049 210.741 292.660 210.741 C 294.096 210.741,295.432 210.679,295.629 210.603 C 296.029 210.450,296.150 208.705,295.760 208.705 C 295.631 208.705,295.534 208.027,295.534 207.123 L 295.534 205.540 294.840 205.540 C 293.445 205.540,293.499 206.062,293.499 192.688 L 293.499 180.482 290.334 180.482 L 287.168 180.482 287.168 193.778 M40.475 192.514 C 40.475 201.027,40.430 202.343,40.136 202.456 C 39.946 202.529,39.796 202.865,39.796 203.222 C 39.796 203.598,39.612 203.990,39.344 204.183 C 39.096 204.362,38.892 204.639,38.892 204.798 C 38.892 205.004,38.463 205.088,37.411 205.088 L 35.930 205.088 34.631 203.731 C 33.061 202.091,33.042 202.088,31.778 203.222 C 31.604 203.378,31.397 203.505,31.317 203.505 C 31.085 203.505,30.526 204.128,30.526 204.386 C 30.526 204.515,30.393 204.570,30.230 204.508 C 29.767 204.330,28.943 205.188,28.943 205.849 C 28.943 206.176,29.045 206.444,29.169 206.444 C 29.293 206.444,29.395 206.553,29.395 206.687 C 29.395 207.000,29.970 207.575,30.283 207.575 C 30.417 207.575,30.526 207.709,30.526 207.873 C 30.526 208.205,31.533 209.158,31.884 209.158 C 32.008 209.158,32.109 209.259,32.109 209.384 C 32.109 209.508,32.312 209.610,32.561 209.610 C 32.812 209.610,33.013 209.761,33.013 209.949 C 33.013 210.160,33.227 210.288,33.578 210.288 C 33.889 210.288,34.144 210.390,34.144 210.514 C 34.144 210.656,35.500 210.741,37.761 210.741 C 40.023 210.741,41.379 210.656,41.379 210.514 C 41.379 210.390,41.586 210.288,41.839 210.288 C 42.091 210.288,42.357 210.136,42.428 209.949 C 42.500 209.763,42.751 209.610,42.986 209.610 C 43.222 209.610,43.414 209.508,43.414 209.384 C 43.414 209.259,43.530 209.158,43.671 209.158 C 44.044 209.158,44.997 207.981,44.997 207.518 C 44.997 207.301,45.091 207.123,45.207 207.123 C 45.528 207.123,46.128 205.775,46.128 205.053 C 46.128 204.699,46.230 204.409,46.354 204.409 C 46.501 204.409,46.580 200.641,46.580 193.556 L 46.580 182.702 43.527 182.702 L 40.475 182.702 40.475 192.514 M200.791 183.493 C 200.791 183.929,200.690 184.285,200.565 184.285 C 200.441 184.285,200.339 184.630,200.339 185.052 C 200.339 185.526,200.209 185.869,200.000 185.949 C 199.802 186.026,199.661 186.364,199.661 186.765 C 199.661 187.142,199.559 187.451,199.435 187.451 C 199.310 187.451,199.209 187.801,199.209 188.229 C 199.209 188.657,199.107 189.070,198.982 189.146 C 198.858 189.223,198.756 189.631,198.756 190.053 C 198.756 190.527,198.615 190.899,198.387 191.027 C 198.129 191.171,198.048 191.442,198.120 191.928 C 198.181 192.348,198.126 192.607,197.980 192.581 C 197.847 192.557,197.707 192.869,197.668 193.273 C 197.629 193.677,197.502 194.008,197.385 194.008 C 197.269 194.008,197.174 194.364,197.174 194.799 C 197.174 195.235,197.072 195.591,196.947 195.591 C 196.823 195.591,196.721 195.936,196.721 196.358 C 196.721 196.831,196.591 197.175,196.382 197.255 C 196.186 197.331,196.043 197.669,196.043 198.058 C 196.043 198.427,195.941 198.793,195.817 198.869 C 195.692 198.946,195.591 199.302,195.591 199.661 C 195.591 200.019,195.489 200.375,195.365 200.452 C 195.240 200.529,195.138 200.945,195.138 201.377 C 195.138 201.866,195.011 202.211,194.799 202.292 C 194.590 202.373,194.460 202.716,194.460 203.190 C 194.460 203.612,194.358 203.957,194.234 203.957 C 194.110 203.957,194.008 204.313,194.008 204.748 C 194.008 205.184,193.906 205.540,193.782 205.540 C 193.657 205.540,193.556 205.885,193.556 206.307 C 193.556 206.806,193.427 207.123,193.189 207.215 C 192.917 207.319,192.857 207.531,192.957 208.031 C 193.058 208.536,193.008 208.705,192.759 208.705 C 192.528 208.705,192.425 208.950,192.425 209.497 L 192.425 210.288 195.817 210.288 L 199.209 210.288 199.209 209.397 C 199.209 208.907,199.310 208.443,199.435 208.366 C 199.559 208.289,199.661 207.836,199.661 207.360 C 199.661 206.798,199.780 206.447,200.000 206.363 C 200.224 206.277,200.339 205.923,200.339 205.321 C 200.339 204.819,200.441 204.409,200.565 204.409 C 200.690 204.409,200.791 204.206,200.791 203.957 C 200.791 203.522,200.942 203.505,204.748 203.505 C 208.555 203.505,208.705 203.522,208.705 203.957 C 208.705 204.206,208.807 204.409,208.932 204.409 C 209.056 204.409,209.158 204.867,209.158 205.427 C 209.158 205.986,209.259 206.444,209.384 206.444 C 209.508 206.444,209.610 206.804,209.610 207.243 C 209.610 207.742,209.736 208.090,209.948 208.171 C 210.172 208.257,210.241 208.476,210.153 208.826 C 209.808 210.202,210.011 210.288,213.582 210.288 L 216.846 210.288 216.846 209.271 C 216.846 208.711,216.744 208.253,216.620 208.253 C 216.495 208.253,216.393 207.897,216.393 207.462 C 216.393 207.027,216.292 206.670,216.167 206.670 C 216.043 206.670,215.941 206.325,215.941 205.903 C 215.941 205.430,215.811 205.086,215.602 205.006 C 215.378 204.920,215.263 204.566,215.263 203.964 C 215.263 203.463,215.161 203.053,215.037 203.053 C 214.912 203.053,214.811 202.696,214.811 202.261 C 214.811 201.826,214.709 201.470,214.585 201.470 C 214.460 201.470,214.358 201.114,214.358 200.678 C 214.358 200.243,214.257 199.887,214.132 199.887 C 214.008 199.887,213.906 199.640,213.906 199.338 C 213.906 199.036,213.754 198.636,213.567 198.449 C 213.380 198.263,213.228 197.798,213.228 197.416 C 213.228 197.034,213.126 196.721,213.002 196.721 C 212.877 196.721,212.776 196.365,212.776 195.930 C 212.776 195.495,212.674 195.138,212.549 195.138 C 212.425 195.138,212.323 194.830,212.323 194.453 C 212.323 194.052,212.182 193.714,211.984 193.637 C 211.775 193.557,211.645 193.213,211.645 192.740 C 211.645 192.318,211.543 191.973,211.419 191.973 C 211.295 191.973,211.193 191.617,211.193 191.181 C 211.193 190.746,211.091 190.390,210.967 190.390 C 210.842 190.390,210.741 190.041,210.741 189.615 C 210.741 189.188,210.588 188.687,210.401 188.500 C 210.215 188.314,210.062 187.849,210.062 187.467 C 210.062 187.085,209.960 186.772,209.836 186.772 C 209.712 186.772,209.610 186.473,209.610 186.107 C 209.610 185.741,209.508 185.379,209.384 185.302 C 209.259 185.226,209.158 184.869,209.158 184.511 C 209.158 184.153,209.056 183.796,208.932 183.720 C 208.807 183.643,208.705 183.382,208.705 183.141 C 208.705 182.723,208.515 182.702,204.748 182.702 L 200.791 182.702 200.791 183.493 M99.868 183.757 C 99.785 183.840,99.717 184.751,99.717 185.782 C 99.717 188.089,99.439 188.807,98.543 188.807 C 98.175 188.807,97.838 188.954,97.764 189.146 C 97.684 189.356,97.340 189.486,96.867 189.486 L 96.099 189.486 96.099 191.747 L 96.099 194.008 97.682 194.008 L 99.265 194.008 99.265 200.226 C 99.265 204.221,99.346 206.444,99.491 206.444 C 99.616 206.444,99.717 206.699,99.717 207.010 C 99.717 207.356,99.846 207.575,100.049 207.575 C 100.253 207.575,100.331 207.707,100.250 207.917 C 100.103 208.300,102.029 210.288,102.547 210.288 C 102.717 210.288,102.919 210.390,102.996 210.514 C 103.176 210.806,109.666 210.820,109.666 210.529 C 109.666 210.412,109.997 210.285,110.401 210.246 C 111.222 210.167,111.718 208.705,110.924 208.705 C 110.652 208.705,110.571 208.453,110.571 207.610 C 110.571 206.044,109.779 204.583,109.327 205.314 C 108.862 206.067,106.049 205.395,106.049 204.531 C 106.049 204.332,105.896 204.110,105.709 204.039 C 105.422 203.929,105.370 203.150,105.370 198.958 L 105.370 194.008 107.978 194.008 L 110.586 194.008 110.522 191.464 L 110.458 188.920 107.914 188.856 L 105.370 188.792 105.370 186.199 L 105.370 183.607 102.695 183.607 C 101.223 183.607,99.951 183.674,99.868 183.757 M85.246 188.581 C 85.246 188.705,84.890 188.807,84.454 188.807 C 83.902 188.807,83.663 188.910,83.663 189.146 C 83.663 189.357,83.450 189.486,83.098 189.486 C 82.787 189.486,82.533 189.587,82.533 189.712 C 82.533 189.836,82.329 189.938,82.080 189.938 C 81.832 189.938,81.628 190.040,81.628 190.164 C 81.628 190.288,81.475 190.390,81.289 190.390 C 81.102 190.390,80.950 190.543,80.950 190.729 C 80.950 191.591,80.514 190.946,80.453 189.994 L 80.384 188.920 77.671 188.920 L 74.958 188.920 74.899 199.604 L 74.840 210.288 78.121 210.288 L 81.402 210.288 81.402 203.166 C 81.402 199.248,81.489 196.043,81.595 196.043 C 81.700 196.043,82.107 195.738,82.497 195.365 C 82.887 194.992,83.363 194.686,83.555 194.686 C 83.747 194.686,83.962 194.534,84.034 194.347 C 84.118 194.128,84.467 194.008,85.020 194.008 C 85.572 194.008,85.922 194.128,86.006 194.347 C 86.078 194.534,86.292 194.686,86.482 194.686 C 86.678 194.686,86.829 194.883,86.829 195.138 C 86.829 195.387,86.930 195.591,87.055 195.591 C 87.201 195.591,87.281 198.193,87.281 202.946 L 87.281 210.300 90.616 210.238 L 93.951 210.175 94.011 203.242 C 94.062 197.296,94.022 196.259,93.729 195.965 C 93.492 195.729,93.386 195.163,93.386 194.137 C 93.386 193.297,93.288 192.651,93.160 192.651 C 93.036 192.651,92.934 192.397,92.934 192.086 C 92.934 191.775,92.832 191.521,92.708 191.521 C 92.583 191.521,92.482 191.334,92.482 191.106 C 92.482 190.637,91.295 189.486,90.812 189.486 C 90.638 189.486,90.436 189.333,90.365 189.146 C 90.290 188.950,89.951 188.807,89.563 188.807 C 89.193 188.807,88.828 188.705,88.751 188.581 C 88.674 188.457,87.854 188.355,86.928 188.355 C 85.957 188.355,85.246 188.451,85.246 188.581 M119.503 188.581 C 119.426 188.705,118.857 188.807,118.238 188.807 C 117.448 188.807,117.076 188.908,116.984 189.146 C 116.911 189.337,116.574 189.486,116.213 189.486 C 115.861 189.486,115.509 189.587,115.432 189.712 C 115.356 189.836,115.095 189.938,114.854 189.938 C 114.612 189.938,114.415 190.040,114.415 190.164 C 114.415 190.288,114.229 190.390,114.002 190.390 C 113.258 190.390,112.653 191.308,112.774 192.256 C 112.833 192.722,112.972 193.103,113.083 193.103 C 113.194 193.103,113.284 193.307,113.284 193.556 C 113.284 193.804,113.386 194.008,113.510 194.008 C 113.635 194.008,113.737 194.189,113.737 194.410 C 113.737 194.631,113.941 194.987,114.191 195.201 C 114.680 195.619,115.998 195.738,115.998 195.365 C 115.998 195.240,116.201 195.138,116.450 195.138 C 116.699 195.138,116.902 195.037,116.902 194.912 C 116.902 194.788,117.093 194.686,117.327 194.686 C 117.560 194.686,117.878 194.534,118.033 194.347 C 118.607 193.656,121.736 193.886,122.547 194.679 C 123.850 195.952,123.305 196.721,121.102 196.721 C 120.262 196.721,119.616 196.820,119.616 196.947 C 119.616 197.072,119.158 197.174,118.598 197.174 C 117.890 197.174,117.581 197.267,117.581 197.481 C 117.581 197.682,117.397 197.754,117.051 197.688 C 116.749 197.630,116.367 197.741,116.163 197.945 C 115.965 198.143,115.663 198.304,115.491 198.304 C 115.319 198.304,114.960 198.508,114.693 198.756 C 114.426 199.005,114.102 199.209,113.972 199.209 C 113.843 199.209,113.737 199.322,113.737 199.461 C 113.737 199.599,113.371 200.048,112.923 200.458 C 112.303 201.026,112.146 201.315,112.261 201.676 C 112.363 202.000,112.298 202.194,112.056 202.286 C 111.540 202.484,111.530 206.444,112.045 206.444 C 112.293 206.444,112.351 206.593,112.254 206.979 C 112.162 207.347,112.231 207.556,112.476 207.650 C 112.672 207.725,112.832 207.947,112.832 208.143 C 112.832 208.542,113.812 209.610,114.179 209.610 C 114.309 209.610,114.415 209.763,114.415 209.949 C 114.415 210.136,114.612 210.288,114.854 210.288 C 115.095 210.288,115.356 210.390,115.432 210.514 C 115.513 210.645,116.712 210.741,118.259 210.741 C 119.806 210.741,121.005 210.645,121.085 210.514 C 121.162 210.390,121.412 210.288,121.640 210.288 C 121.868 210.288,122.113 210.136,122.185 209.949 C 122.256 209.763,122.522 209.610,122.774 209.610 C 123.027 209.610,123.233 209.508,123.233 209.384 C 123.233 209.259,123.428 209.158,123.667 209.158 C 123.905 209.158,124.148 209.031,124.205 208.875 C 124.263 208.720,124.297 208.949,124.281 209.384 L 124.251 210.175 127.134 210.239 L 130.017 210.302 130.017 202.962 C 130.017 196.740,129.965 195.571,129.678 195.284 C 129.487 195.093,129.339 194.541,129.339 194.024 C 129.339 193.518,129.237 193.103,129.112 193.103 C 128.988 193.103,128.886 192.849,128.886 192.538 C 128.886 192.227,128.785 191.973,128.660 191.973 C 128.536 191.973,128.434 191.769,128.434 191.521 C 128.434 191.269,128.283 191.068,128.095 191.068 C 127.908 191.068,127.756 190.959,127.756 190.826 C 127.756 190.501,127.333 190.122,126.512 189.712 C 126.139 189.525,125.699 189.245,125.535 189.090 C 125.371 188.934,124.893 188.807,124.474 188.807 C 124.055 188.807,123.650 188.705,123.573 188.581 C 123.496 188.457,122.580 188.355,121.538 188.355 C 120.495 188.355,119.579 188.457,119.503 188.581 M172.866 188.581 C 172.789 188.705,172.376 188.807,171.948 188.807 C 171.407 188.807,171.170 188.911,171.170 189.146 C 171.170 189.357,170.957 189.486,170.605 189.486 C 170.294 189.486,170.040 189.587,170.040 189.712 C 170.040 189.836,169.836 189.938,169.587 189.938 C 169.339 189.938,169.135 190.040,169.135 190.164 C 169.135 190.288,168.982 190.390,168.796 190.390 C 168.609 190.390,168.457 190.466,168.456 190.560 C 168.456 190.849,167.401 191.973,167.130 191.973 C 166.989 191.973,166.874 192.125,166.874 192.312 C 166.874 192.499,166.772 192.651,166.648 192.651 C 166.523 192.651,166.422 192.855,166.422 193.103 C 166.422 193.352,166.320 193.556,166.196 193.556 C 166.071 193.556,165.969 193.799,165.969 194.097 C 165.969 194.394,165.817 194.696,165.630 194.768 C 165.434 194.843,165.291 195.181,165.291 195.570 C 165.291 195.940,165.189 196.305,165.065 196.382 C 164.932 196.464,164.839 197.817,164.839 199.674 C 164.839 201.625,164.925 202.826,165.065 202.826 C 165.189 202.826,165.291 203.163,165.291 203.575 C 165.291 203.986,165.441 204.520,165.623 204.762 C 165.806 205.003,165.958 205.379,165.962 205.596 C 165.966 205.814,166.071 205.992,166.196 205.992 C 166.320 205.992,166.422 206.145,166.422 206.331 C 166.422 206.518,166.523 206.670,166.648 206.670 C 166.772 206.670,166.876 206.798,166.878 206.953 C 166.880 207.109,167.134 207.475,167.443 207.768 C 167.752 208.061,168.005 208.392,168.005 208.503 C 168.005 208.614,168.157 208.705,168.344 208.705 C 168.530 208.705,168.683 208.807,168.683 208.932 C 168.683 209.056,168.886 209.158,169.135 209.158 C 169.384 209.158,169.587 209.259,169.587 209.384 C 169.587 209.508,169.780 209.610,170.015 209.610 C 170.251 209.610,170.502 209.763,170.574 209.949 C 170.645 210.136,170.955 210.288,171.263 210.288 C 171.570 210.288,171.885 210.390,171.962 210.514 C 172.045 210.649,173.471 210.741,175.480 210.741 C 177.581 210.741,178.858 210.655,178.858 210.514 C 178.858 210.390,179.214 210.288,179.650 210.288 C 180.202 210.288,180.441 210.186,180.441 209.949 C 180.441 209.738,180.654 209.610,181.006 209.610 C 181.317 209.610,181.572 209.508,181.572 209.384 C 181.572 209.259,181.775 209.158,182.024 209.158 C 182.272 209.158,182.476 209.056,182.476 208.932 C 182.476 208.807,182.629 208.705,182.815 208.705 C 183.240 208.705,183.270 207.724,182.858 207.308 C 182.695 207.144,182.415 206.679,182.237 206.275 C 182.059 205.871,181.836 205.540,181.742 205.540 C 181.648 205.540,181.572 205.333,181.572 205.081 C 181.572 204.441,180.902 204.234,180.521 204.755 C 180.248 205.129,180.215 205.133,180.215 204.792 C 180.215 204.318,179.795 204.288,179.618 204.748 C 179.547 204.935,179.245 205.088,178.947 205.088 C 178.649 205.088,178.406 205.189,178.406 205.314 C 178.406 205.449,177.539 205.540,176.258 205.540 C 174.976 205.540,174.110 205.449,174.110 205.314 C 174.110 205.189,173.969 205.088,173.798 205.088 C 173.312 205.088,171.622 203.332,171.622 202.827 C 171.622 202.578,171.521 202.374,171.396 202.374 C 171.272 202.374,171.170 202.272,171.170 202.148 C 171.170 202.003,173.394 201.922,177.388 201.922 L 183.607 201.922 183.607 198.304 C 183.607 196.043,183.522 194.686,183.380 194.686 C 183.256 194.686,183.154 194.439,183.154 194.137 C 183.154 193.835,183.002 193.435,182.815 193.249 C 182.629 193.062,182.476 192.759,182.476 192.576 C 182.476 192.067,179.869 189.486,179.355 189.486 C 179.108 189.486,178.848 189.333,178.776 189.146 C 178.690 188.923,178.336 188.807,177.735 188.807 C 177.233 188.807,176.823 188.705,176.823 188.581 C 176.823 188.448,176.036 188.355,174.914 188.355 C 173.865 188.355,172.943 188.457,172.866 188.581 M229.169 188.581 C 229.092 188.705,228.690 188.807,228.275 188.807 C 227.814 188.807,227.471 188.939,227.391 189.146 C 227.320 189.333,227.101 189.486,226.905 189.486 C 226.710 189.486,226.331 189.689,226.064 189.938 C 225.797 190.187,225.395 190.390,225.169 190.390 C 224.935 190.390,224.760 190.554,224.760 190.774 C 224.760 191.537,224.337 190.724,224.266 189.825 L 224.194 188.920 221.651 188.856 L 219.107 188.792 219.107 199.540 L 219.107 210.288 222.159 210.288 L 225.212 210.288 225.212 203.326 L 225.212 196.364 226.124 195.525 C 226.626 195.064,227.180 194.686,227.356 194.686 C 227.533 194.686,227.758 194.546,227.858 194.374 C 228.107 193.942,229.960 193.778,229.960 194.188 C 229.960 194.552,230.508 195.138,230.849 195.138 C 230.985 195.138,231.091 195.583,231.091 196.156 C 231.091 196.716,231.193 197.174,231.317 197.174 C 231.463 197.174,231.543 199.510,231.543 203.731 L 231.543 210.288 234.596 210.288 L 237.648 210.288 237.648 202.487 C 237.648 197.437,237.569 194.686,237.422 194.686 C 237.298 194.686,237.196 194.178,237.196 193.556 C 237.196 192.934,237.107 192.425,236.998 192.425 C 236.889 192.425,236.741 192.125,236.667 191.759 C 236.500 190.925,235.129 189.486,234.502 189.486 C 234.234 189.486,234.031 189.339,234.031 189.146 C 234.031 188.910,233.792 188.807,233.239 188.807 C 232.804 188.807,232.448 188.705,232.448 188.581 C 232.448 188.452,231.774 188.355,230.878 188.355 C 230.015 188.355,229.246 188.457,229.169 188.581 M272.244 188.581 C 272.244 188.705,271.746 188.807,271.138 188.807 C 270.363 188.807,269.992 188.909,269.901 189.146 C 269.825 189.345,269.486 189.486,269.086 189.486 C 268.709 189.486,268.400 189.587,268.400 189.712 C 268.400 189.836,268.203 189.938,267.961 189.938 C 267.720 189.938,267.460 190.040,267.383 190.164 C 267.306 190.288,267.045 190.390,266.804 190.390 C 266.563 190.390,266.365 190.485,266.365 190.601 C 266.365 190.717,266.162 190.876,265.913 190.955 C 265.438 191.106,265.236 192.425,265.687 192.425 C 265.811 192.425,265.913 192.679,265.913 192.990 C 265.913 193.301,266.015 193.556,266.139 193.556 C 266.263 193.556,266.365 193.759,266.365 194.008 C 266.365 194.257,266.465 194.460,266.587 194.460 C 266.709 194.460,266.873 194.715,266.951 195.025 C 267.132 195.748,268.242 195.799,269.418 195.138 C 269.861 194.890,270.376 194.686,270.562 194.686 C 270.749 194.686,270.960 194.534,271.032 194.347 C 271.435 193.298,275.862 194.127,275.862 195.252 C 275.862 195.438,275.964 195.591,276.088 195.591 C 276.417 195.591,276.365 196.025,275.991 196.398 C 275.777 196.613,275.169 196.721,274.182 196.721 C 273.342 196.721,272.696 196.820,272.696 196.947 C 272.696 197.072,272.239 197.174,271.679 197.174 C 270.984 197.174,270.661 197.269,270.661 197.474 C 270.661 197.678,270.446 197.742,269.986 197.674 C 269.508 197.604,269.269 197.682,269.170 197.940 C 269.093 198.140,268.787 198.304,268.489 198.304 C 268.191 198.304,267.948 198.406,267.948 198.530 C 267.948 198.655,267.787 198.756,267.591 198.756 C 267.076 198.756,265.461 200.464,265.461 201.009 C 265.461 201.268,265.312 201.470,265.122 201.470 C 264.838 201.470,264.782 201.935,264.782 204.296 C 264.782 206.658,264.838 207.123,265.122 207.123 C 265.333 207.123,265.461 207.336,265.461 207.688 C 265.461 207.999,265.562 208.253,265.687 208.253 C 265.811 208.253,265.913 208.383,265.913 208.542 C 265.913 208.915,266.724 209.610,267.159 209.610 C 267.344 209.610,267.496 209.763,267.496 209.949 C 267.496 210.136,267.693 210.288,267.935 210.288 C 268.176 210.288,268.436 210.390,268.513 210.514 C 268.594 210.645,269.793 210.741,271.340 210.741 C 272.887 210.741,274.086 210.645,274.166 210.514 C 274.243 210.390,274.503 210.288,274.745 210.288 C 274.986 210.288,275.184 210.136,275.184 209.949 C 275.184 209.747,275.392 209.610,275.699 209.610 C 275.983 209.610,276.361 209.406,276.540 209.158 C 277.049 208.452,277.445 208.600,277.445 209.497 L 277.445 210.288 280.045 210.288 L 282.646 210.288 282.646 202.254 C 282.646 195.321,282.599 194.202,282.306 194.090 C 282.097 194.009,281.967 193.666,281.967 193.192 C 281.967 192.770,281.865 192.425,281.741 192.425 C 281.617 192.425,281.515 192.265,281.515 192.069 C 281.515 191.554,279.346 189.486,278.806 189.486 C 278.551 189.486,278.349 189.336,278.349 189.146 C 278.349 188.895,278.086 188.807,277.332 188.807 C 276.772 188.807,276.314 188.705,276.314 188.581 C 276.314 188.447,275.485 188.355,274.279 188.355 C 273.073 188.355,272.244 188.447,272.244 188.581 M329.452 188.581 C 329.452 188.705,328.994 188.807,328.434 188.807 C 327.680 188.807,327.417 188.895,327.417 189.146 C 327.417 189.357,327.203 189.486,326.851 189.486 C 326.540 189.486,326.286 189.587,326.286 189.712 C 326.286 189.836,326.118 189.938,325.912 189.938 C 325.266 189.938,322.668 192.105,322.668 192.644 C 322.668 192.783,322.414 193.171,322.103 193.507 C 321.792 193.842,321.538 194.346,321.538 194.627 C 321.538 194.909,321.436 195.138,321.311 195.138 C 321.187 195.138,321.085 195.495,321.085 195.930 C 321.085 196.365,320.984 196.721,320.859 196.721 C 320.720 196.721,320.633 197.890,320.633 199.774 C 320.633 201.658,320.720 202.826,320.859 202.826 C 320.984 202.826,321.085 203.183,321.085 203.618 C 321.085 204.053,321.187 204.409,321.311 204.409 C 321.436 204.409,321.539 204.638,321.541 204.918 C 321.546 205.573,321.874 206.090,322.170 205.908 C 322.309 205.822,322.353 205.944,322.282 206.218 C 322.215 206.471,322.274 206.670,322.416 206.670 C 322.555 206.670,322.668 206.826,322.668 207.017 C 322.668 207.703,325.084 209.610,325.954 209.610 C 326.137 209.610,326.286 209.763,326.286 209.949 C 326.286 210.158,326.498 210.288,326.838 210.288 C 327.142 210.288,327.453 210.390,327.530 210.514 C 327.613 210.649,329.039 210.741,331.048 210.741 C 333.149 210.741,334.426 210.655,334.426 210.514 C 334.426 210.390,334.684 210.288,334.999 210.288 C 335.313 210.288,335.630 210.136,335.701 209.949 C 335.773 209.763,336.024 209.610,336.259 209.610 C 336.495 209.610,336.687 209.508,336.687 209.384 C 336.687 209.259,336.865 209.154,337.083 209.151 C 337.973 209.134,338.927 207.123,338.044 207.123 C 337.920 207.123,337.818 206.933,337.818 206.702 C 337.818 206.471,337.564 206.091,337.253 205.857 C 336.942 205.624,336.684 205.279,336.680 205.090 C 336.656 203.935,335.066 203.550,334.335 204.522 C 334.061 204.888,333.689 205.088,333.283 205.088 C 332.938 205.088,332.621 205.189,332.580 205.313 C 332.471 205.639,330.514 205.675,330.407 205.353 C 330.358 205.207,330.123 205.088,329.885 205.088 C 329.647 205.088,329.452 204.935,329.452 204.748 C 329.452 204.562,329.375 204.409,329.282 204.409 C 328.880 204.408,327.869 203.298,327.869 202.857 C 327.869 202.591,327.767 202.374,327.643 202.374 C 327.505 202.374,327.417 201.357,327.417 199.774 C 327.417 198.191,327.505 197.174,327.643 197.174 C 327.767 197.174,327.869 196.980,327.869 196.744 C 327.869 196.314,329.317 194.686,329.700 194.686 C 329.812 194.686,329.904 194.534,329.904 194.347 C 329.904 194.078,330.231 194.008,331.487 194.008 C 332.371 194.008,333.070 194.106,333.070 194.230 C 333.070 194.352,333.324 194.515,333.635 194.593 C 333.946 194.671,334.200 194.826,334.200 194.937 C 334.200 195.048,334.483 195.138,334.828 195.138 C 335.460 195.138,336.235 194.479,336.235 193.942 C 336.235 193.785,336.439 193.509,336.687 193.330 C 336.936 193.150,337.140 192.884,337.140 192.739 C 337.140 192.593,337.292 192.415,337.479 192.343 C 337.703 192.257,337.818 191.903,337.818 191.302 C 337.818 190.642,337.724 190.390,337.479 190.390 C 337.292 190.390,337.140 190.288,337.140 190.164 C 337.140 190.040,336.936 189.938,336.687 189.938 C 336.439 189.938,336.235 189.836,336.235 189.712 C 336.235 189.587,335.981 189.486,335.670 189.486 C 335.318 189.486,335.105 189.357,335.105 189.146 C 335.105 188.910,334.866 188.807,334.313 188.807 C 333.878 188.807,333.522 188.705,333.522 188.581 C 333.522 188.447,332.693 188.355,331.487 188.355 C 330.281 188.355,329.452 188.447,329.452 188.581 M358.621 188.581 C 358.621 188.705,358.163 188.807,357.603 188.807 C 356.849 188.807,356.586 188.895,356.586 189.146 C 356.586 189.383,356.347 189.486,355.794 189.486 C 355.359 189.486,355.003 189.587,355.003 189.712 C 355.003 189.836,354.748 189.938,354.438 189.938 C 354.127 189.938,353.872 190.040,353.872 190.164 C 353.872 190.288,353.669 190.390,353.420 190.390 C 353.171 190.390,352.968 190.490,352.968 190.612 C 352.968 190.734,352.713 190.898,352.402 190.976 C 351.832 191.119,351.526 192.425,352.063 192.425 C 352.188 192.425,352.289 192.679,352.289 192.990 C 352.289 193.342,352.418 193.556,352.629 193.556 C 352.817 193.556,352.968 193.757,352.968 194.008 C 352.968 194.257,353.062 194.460,353.178 194.460 C 353.294 194.460,353.421 194.689,353.461 194.969 C 353.538 195.513,355.455 195.906,355.455 195.378 C 355.455 195.246,355.592 195.138,355.759 195.138 C 356.213 195.138,357.490 194.459,357.490 194.217 C 357.490 194.102,358.457 194.008,359.638 194.008 C 361.397 194.008,361.786 194.069,361.786 194.347 C 361.786 194.534,361.888 194.686,362.012 194.686 C 362.137 194.686,362.239 194.890,362.239 195.138 C 362.239 195.387,362.340 195.591,362.465 195.591 C 362.794 195.591,362.741 196.025,362.368 196.398 C 362.153 196.613,361.545 196.721,360.559 196.721 C 359.719 196.721,359.073 196.820,359.073 196.947 C 359.073 197.072,358.615 197.174,358.055 197.174 C 357.348 197.174,357.038 197.267,357.038 197.481 C 357.038 197.682,356.854 197.754,356.508 197.688 C 356.206 197.630,355.824 197.741,355.620 197.945 C 355.423 198.143,355.101 198.304,354.906 198.304 C 354.710 198.304,354.551 198.406,354.551 198.530 C 354.551 198.655,354.373 198.760,354.155 198.764 C 353.666 198.772,352.968 199.282,352.968 199.629 C 352.968 199.771,352.834 199.887,352.671 199.887 C 352.507 199.887,352.234 200.243,352.063 200.678 C 351.893 201.114,351.670 201.470,351.569 201.470 C 351.468 201.470,351.385 202.742,351.385 204.296 C 351.385 206.030,351.472 207.123,351.611 207.123 C 351.735 207.123,351.837 207.303,351.837 207.523 C 351.837 208.038,353.127 209.610,353.550 209.610 C 353.727 209.610,353.872 209.763,353.872 209.949 C 353.872 210.160,354.086 210.288,354.438 210.288 C 354.748 210.288,355.003 210.390,355.003 210.514 C 355.003 210.653,356.096 210.741,357.829 210.741 C 359.563 210.741,360.656 210.653,360.656 210.514 C 360.656 210.390,360.862 210.288,361.115 210.288 C 361.368 210.288,361.633 210.136,361.705 209.949 C 361.776 209.763,362.027 209.610,362.263 209.610 C 362.498 209.610,362.691 209.508,362.691 209.384 C 362.691 209.259,362.843 209.158,363.030 209.158 C 363.217 209.158,363.369 209.056,363.369 208.932 C 363.369 208.807,363.471 208.705,363.595 208.705 C 363.720 208.705,363.821 209.062,363.821 209.497 L 363.821 210.288 366.422 210.288 L 369.022 210.288 369.022 202.048 C 369.022 196.799,368.940 193.758,368.796 193.669 C 368.672 193.592,368.570 193.328,368.570 193.083 C 368.570 192.838,368.417 192.578,368.231 192.507 C 368.044 192.435,367.891 192.184,367.891 191.949 C 367.891 191.713,367.807 191.521,367.704 191.521 C 367.600 191.521,367.380 191.266,367.213 190.955 C 367.047 190.644,366.798 190.390,366.660 190.390 C 366.521 190.390,366.262 190.187,366.083 189.938 C 365.903 189.689,365.586 189.486,365.378 189.486 C 365.170 189.486,364.942 189.333,364.870 189.146 C 364.785 188.924,364.432 188.807,363.842 188.807 C 363.348 188.807,362.881 188.705,362.804 188.581 C 362.727 188.457,361.754 188.355,360.642 188.355 C 359.445 188.355,358.621 188.447,358.621 188.581 M51.611 188.954 C 51.250 189.104,51.194 203.279,51.555 203.279 C 51.682 203.279,51.784 203.943,51.788 204.805 C 51.792 205.787,51.913 206.488,52.127 206.770 C 52.310 207.012,52.459 207.393,52.459 207.618 C 52.459 207.843,52.561 208.027,52.685 208.027 C 52.809 208.027,52.911 208.128,52.911 208.252 C 52.911 208.603,53.864 209.610,54.196 209.610 C 54.360 209.610,54.494 209.763,54.494 209.949 C 54.494 210.138,54.695 210.288,54.946 210.288 C 55.195 210.288,55.399 210.390,55.399 210.514 C 55.399 210.654,56.529 210.741,58.338 210.741 C 60.147 210.741,61.278 210.654,61.278 210.514 C 61.278 210.390,61.492 210.288,61.754 210.288 C 62.050 210.288,62.188 210.178,62.118 209.996 C 62.048 209.812,62.214 209.687,62.568 209.658 C 62.877 209.632,63.415 209.306,63.764 208.932 C 64.640 207.995,64.895 208.071,64.895 209.271 L 64.895 210.288 67.496 210.288 L 70.096 210.288 70.096 199.541 L 70.096 188.794 66.987 188.857 L 63.878 188.920 63.765 196.092 C 63.664 202.495,63.609 203.314,63.256 203.726 C 63.038 203.980,62.860 204.286,62.860 204.405 C 62.860 204.524,62.721 204.568,62.550 204.502 C 62.380 204.437,62.082 204.542,61.888 204.735 C 61.694 204.929,61.334 205.088,61.086 205.088 C 60.839 205.088,60.578 205.215,60.505 205.370 C 60.399 205.596,60.347 205.596,60.241 205.370 C 60.169 205.215,59.857 205.088,59.549 205.088 C 59.184 205.088,59.046 205.178,59.151 205.349 C 59.249 205.507,59.213 205.548,59.061 205.454 C 58.923 205.369,58.867 205.150,58.937 204.967 C 59.007 204.785,58.952 204.635,58.814 204.635 C 58.677 204.635,58.564 204.483,58.564 204.296 C 58.564 204.110,58.464 203.957,58.341 203.957 C 58.200 203.957,58.096 201.191,58.058 196.439 L 57.999 188.920 54.946 188.878 C 53.267 188.855,51.767 188.889,51.611 188.954 M298.567 189.875 C 298.298 191.671,298.620 206.083,298.943 206.702 C 299.097 206.995,299.309 207.388,299.415 207.575 C 299.521 207.761,299.678 208.066,299.764 208.253 C 299.989 208.737,300.898 209.610,301.177 209.610 C 301.307 209.610,301.413 209.763,301.413 209.949 C 301.413 210.138,301.614 210.288,301.865 210.288 C 302.114 210.288,302.318 210.390,302.318 210.514 C 302.318 210.653,303.411 210.741,305.144 210.741 C 306.878 210.741,307.971 210.653,307.971 210.514 C 307.971 210.390,308.213 210.288,308.508 210.288 C 308.804 210.288,309.172 210.136,309.327 209.949 C 309.482 209.763,309.701 209.610,309.815 209.610 C 309.928 209.610,310.399 209.231,310.861 208.768 L 311.702 207.925 311.770 209.107 L 311.838 210.288 314.429 210.288 L 317.020 210.288 316.961 199.604 L 316.902 188.920 313.850 188.920 L 310.797 188.920 310.737 196.119 C 310.678 203.291,310.606 203.957,309.893 203.957 C 309.813 203.957,309.605 204.084,309.432 204.240 C 308.630 204.959,308.413 205.088,307.999 205.088 C 307.755 205.088,307.497 205.215,307.424 205.370 C 307.319 205.596,307.266 205.596,307.160 205.370 C 307.088 205.215,306.826 205.088,306.579 205.088 C 306.094 205.088,305.483 204.592,305.483 204.199 C 305.483 204.066,305.383 203.957,305.260 203.957 C 305.119 203.957,305.015 201.191,304.978 196.439 L 304.918 188.920 301.824 188.857 L 298.729 188.795 298.567 189.875 M341.134 188.958 C 341.051 189.041,340.984 193.874,340.984 199.699 L 340.984 210.288 344.238 210.288 C 346.997 210.288,347.513 210.234,347.630 209.931 C 347.877 209.287,347.785 189.716,347.533 189.245 C 347.296 188.801,341.549 188.544,341.134 188.958 M68.626 189.348 C 68.999 189.390,68.212 189.427,66.877 189.428 C 65.542 189.430,64.489 189.367,64.537 189.289 C 64.622 189.151,67.235 189.189,68.626 189.348 M55.916 189.426 C 55.267 189.471,54.148 189.472,53.428 189.427 C 52.709 189.382,53.239 189.345,54.607 189.344 C 55.975 189.344,56.564 189.380,55.916 189.426 M78.519 189.425 C 77.990 189.473,77.125 189.473,76.597 189.425 C 76.068 189.377,76.501 189.338,77.558 189.338 C 78.615 189.338,79.047 189.377,78.519 189.425 M108.819 189.426 C 108.166 189.472,107.097 189.472,106.444 189.426 C 105.791 189.380,106.326 189.343,107.631 189.343 C 108.937 189.343,109.471 189.380,108.819 189.426 M204.960 190.051 C 204.840 190.689,204.882 190.842,205.176 190.842 C 205.462 190.842,205.540 191.084,205.540 191.973 C 205.540 192.595,205.642 193.103,205.766 193.103 C 205.890 193.103,205.992 193.504,205.992 193.995 C 205.992 194.485,206.094 194.949,206.218 195.025 C 206.343 195.102,206.444 195.504,206.444 195.919 C 206.444 196.381,206.576 196.723,206.783 196.803 C 206.982 196.879,207.123 197.218,207.123 197.619 L 207.123 198.304 204.748 198.304 C 202.382 198.304,202.374 198.302,202.374 197.752 C 202.374 197.449,202.476 197.137,202.600 197.060 C 202.725 196.984,202.826 196.520,202.826 196.030 C 202.826 195.540,202.928 195.138,203.053 195.138 C 203.177 195.138,203.279 194.691,203.279 194.145 C 203.279 193.506,203.391 193.109,203.593 193.031 C 203.765 192.965,203.971 192.471,204.050 191.933 C 204.417 189.437,204.466 189.259,204.782 189.259 C 205.032 189.259,205.073 189.444,204.960 190.051 M222.448 189.424 C 221.985 189.472,221.171 189.473,220.639 189.425 C 220.107 189.378,220.486 189.338,221.481 189.337 C 222.476 189.336,222.911 189.375,222.448 189.424 M302.835 189.426 C 302.186 189.471,301.067 189.472,300.347 189.427 C 299.628 189.382,300.158 189.345,301.526 189.344 C 302.894 189.344,303.483 189.380,302.835 189.426 M315.150 189.427 C 314.435 189.471,313.265 189.471,312.549 189.427 C 311.834 189.382,312.419 189.345,313.850 189.345 C 315.280 189.345,315.865 189.382,315.150 189.427 M345.676 189.427 C 344.960 189.471,343.790 189.471,343.075 189.427 C 342.360 189.382,342.945 189.345,344.375 189.345 C 345.806 189.345,346.391 189.382,345.676 189.427 M311.079 199.844 C 311.041 201.671,311.010 200.113,311.010 196.382 C 311.010 192.651,311.041 191.157,311.079 193.061 C 311.117 194.965,311.117 198.018,311.079 199.844 M341.492 196.212 C 341.460 199.788,341.406 204.291,341.372 206.218 C 341.338 208.146,341.288 205.220,341.260 199.717 C 341.232 194.214,341.286 189.712,341.379 189.712 C 341.473 189.711,341.523 192.637,341.492 196.212 M347.487 199.675 L 347.428 209.271 347.315 199.502 C 347.253 194.130,347.279 189.812,347.374 189.906 C 347.469 190.001,347.519 194.397,347.487 199.675 M175.692 193.782 C 175.692 193.906,175.947 194.008,176.258 194.008 C 176.569 194.008,176.823 194.136,176.823 194.293 C 176.823 194.450,177.077 194.770,177.388 195.003 C 177.790 195.305,177.954 195.643,177.954 196.169 C 177.954 196.576,178.081 196.961,178.236 197.024 C 178.392 197.087,176.865 197.146,174.845 197.156 C 172.824 197.166,171.170 197.092,171.170 196.993 C 171.170 196.665,171.732 195.594,171.905 195.592 C 171.998 195.592,172.075 195.436,172.075 195.247 C 172.075 195.057,172.329 194.787,172.640 194.645 C 172.951 194.503,173.205 194.302,173.205 194.198 C 173.205 194.093,173.409 194.008,173.657 194.008 C 173.906 194.008,174.110 193.906,174.110 193.782 C 174.110 193.657,174.466 193.556,174.901 193.556 C 175.336 193.556,175.692 193.657,175.692 193.782 M153.389 194.347 C 153.460 194.534,153.682 194.686,153.881 194.686 C 154.787 194.686,154.890 195.165,154.890 199.393 C 154.890 203.423,154.687 204.681,154.072 204.476 C 153.937 204.431,153.698 204.550,153.539 204.741 C 153.381 204.932,153.061 205.088,152.827 205.088 C 152.594 205.088,152.402 205.189,152.402 205.314 C 152.402 205.438,152.046 205.540,151.611 205.540 C 151.176 205.540,150.820 205.438,150.820 205.314 C 150.820 205.189,150.565 205.088,150.254 205.088 C 149.943 205.088,149.689 204.957,149.689 204.798 C 149.689 204.639,149.486 204.362,149.237 204.183 C 148.988 204.004,148.785 203.689,148.785 203.483 C 148.785 203.277,148.632 202.981,148.445 202.826 C 148.179 202.605,148.106 201.974,148.106 199.887 C 148.106 197.800,148.179 197.168,148.445 196.947 C 148.632 196.793,148.785 196.470,148.785 196.231 C 148.785 194.731,152.891 193.050,153.389 194.347 M252.798 194.219 C 252.798 194.335,253.022 194.501,253.296 194.588 C 254.343 194.920,254.381 195.097,254.381 199.595 C 254.381 203.598,254.353 203.877,253.929 204.183 C 253.680 204.362,253.477 204.639,253.477 204.798 C 253.477 204.957,253.228 205.088,252.925 205.088 C 252.621 205.088,252.310 205.189,252.233 205.314 C 252.156 205.438,251.692 205.540,251.202 205.540 C 250.712 205.540,250.311 205.438,250.311 205.314 C 250.311 205.189,250.057 205.088,249.746 205.088 C 249.394 205.088,249.180 204.959,249.180 204.748 C 249.180 204.562,249.079 204.409,248.954 204.409 C 248.830 204.409,248.728 204.206,248.728 203.957 C 248.728 203.708,248.626 203.505,248.502 203.505 C 248.378 203.505,248.276 203.298,248.276 203.045 C 248.276 202.793,248.123 202.528,247.937 202.456 C 247.663 202.351,247.598 201.834,247.598 199.774 C 247.598 197.714,247.663 197.197,247.937 197.092 C 248.123 197.020,248.276 196.755,248.276 196.502 C 248.276 196.250,248.378 196.043,248.502 196.043 C 248.626 196.043,248.728 195.862,248.728 195.641 C 248.728 195.419,248.941 195.089,249.202 194.906 C 249.463 194.723,249.844 194.449,250.050 194.298 C 250.487 193.976,252.798 193.909,252.798 194.219 M93.555 206.727 C 93.517 208.499,93.486 207.049,93.486 203.505 C 93.486 199.960,93.517 198.510,93.555 200.283 C 93.593 202.055,93.593 204.955,93.555 206.727 M363.343 202.331 C 363.313 204.304,363.205 204.113,363.089 201.881 C 363.046 201.050,363.091 200.420,363.190 200.481 C 363.288 200.542,363.357 201.375,363.343 202.331 M123.686 202.374 C 123.686 203.279,123.589 203.957,123.460 203.957 C 123.335 203.957,123.233 204.106,123.233 204.289 C 123.233 204.480,123.100 204.570,122.919 204.501 C 122.746 204.434,122.344 204.641,122.025 204.960 C 121.256 205.729,119.297 205.795,118.528 205.079 C 117.514 204.135,118.270 201.922,119.605 201.922 C 119.860 201.922,120.068 201.820,120.068 201.696 C 120.068 201.572,120.376 201.470,120.753 201.470 C 121.154 201.470,121.493 201.329,121.569 201.131 C 121.657 200.900,122.018 200.791,122.692 200.791 L 123.686 200.791 123.686 202.374 M276.314 202.269 C 276.314 203.802,275.537 205.088,274.611 205.088 C 274.428 205.088,274.279 205.189,274.279 205.314 C 274.279 205.438,273.712 205.540,273.019 205.540 C 271.731 205.540,271.114 205.220,271.114 204.552 C 271.114 204.364,271.014 204.148,270.892 204.073 C 270.669 203.935,270.958 203.252,271.481 202.677 C 271.897 202.221,273.355 201.470,273.825 201.470 C 274.065 201.470,274.393 201.321,274.553 201.139 C 274.713 200.957,275.175 200.805,275.579 200.800 L 276.314 200.791 276.314 202.269 M362.691 202.324 C 362.691 203.598,362.614 203.912,362.239 204.183 C 361.990 204.362,361.786 204.639,361.786 204.798 C 361.786 204.957,361.589 205.088,361.347 205.088 C 361.106 205.088,360.846 205.189,360.769 205.314 C 360.692 205.438,360.075 205.540,359.399 205.540 C 358.722 205.540,358.168 205.438,358.168 205.314 C 358.168 205.189,358.016 205.088,357.829 205.088 C 357.183 205.088,357.376 202.964,358.055 202.600 C 358.366 202.434,358.621 202.213,358.621 202.110 C 358.621 202.007,358.824 201.922,359.073 201.922 C 359.322 201.922,359.525 201.820,359.525 201.696 C 359.525 201.572,359.776 201.470,360.082 201.470 C 360.388 201.470,360.769 201.321,360.929 201.139 C 361.090 200.957,361.552 200.805,361.956 200.800 L 362.691 200.791 362.691 202.324 M179.806 201.413 C 178.151 201.451,175.505 201.451,173.927 201.412 C 172.348 201.374,173.703 201.342,176.936 201.342 C 180.170 201.342,181.461 201.374,179.806 201.413 M287.846 206.256 C 287.846 206.525,287.775 206.675,287.689 206.589 C 287.445 206.344,287.410 205.766,287.640 205.766 C 287.753 205.766,287.846 205.986,287.846 206.256 " stroke="none" fill="#141414" fill-rule="evenodd"></path><path id="path2" d="M183.704 16.626 C 183.623 17.058,183.466 17.411,183.355 17.411 C 183.245 17.411,183.154 17.564,183.154 17.750 C 183.154 17.937,183.053 18.089,182.928 18.089 C 182.804 18.089,182.702 18.347,182.702 18.662 C 182.702 18.977,182.571 19.284,182.412 19.345 C 182.252 19.407,182.099 19.734,182.071 20.073 C 182.043 20.412,181.919 20.724,181.796 20.765 C 181.672 20.806,181.572 21.025,181.572 21.250 C 181.572 21.475,181.427 21.714,181.250 21.782 C 181.074 21.850,180.957 22.090,180.992 22.315 C 181.027 22.540,180.981 22.776,180.891 22.838 C 180.683 22.981,179.536 25.486,179.536 25.797 C 179.536 25.925,179.432 25.966,179.305 25.887 C 179.177 25.808,179.096 25.828,179.123 25.930 C 179.213 26.260,178.835 27.134,178.603 27.134 C 178.480 27.134,178.429 27.214,178.490 27.313 C 178.607 27.503,178.352 28.125,177.134 30.618 C 176.714 31.477,176.371 32.316,176.371 32.483 C 176.371 32.650,176.271 32.787,176.149 32.787 C 176.027 32.787,175.864 33.041,175.786 33.351 C 175.708 33.661,175.579 33.874,175.499 33.825 C 175.419 33.775,175.338 33.993,175.319 34.308 C 175.300 34.623,175.198 34.944,175.093 35.021 C 174.755 35.268,174.336 36.158,174.336 36.628 C 174.336 36.878,174.242 37.083,174.128 37.083 C 174.013 37.083,173.852 37.389,173.770 37.763 C 173.688 38.138,173.527 38.386,173.413 38.315 C 173.299 38.245,173.205 38.498,173.205 38.879 C 173.205 39.259,173.103 39.570,172.979 39.570 C 172.855 39.570,172.753 39.774,172.753 40.023 C 172.753 40.271,172.604 40.475,172.421 40.475 C 172.238 40.475,172.139 40.607,172.201 40.768 C 172.263 40.929,172.056 41.545,171.742 42.137 C 171.427 42.728,171.170 43.410,171.170 43.652 C 171.170 43.895,171.063 44.093,170.932 44.093 C 170.802 44.093,170.545 44.474,170.362 44.941 C 170.178 45.407,169.929 45.965,169.808 46.181 C 169.687 46.397,169.587 46.731,169.587 46.923 C 169.587 47.115,169.442 47.328,169.265 47.396 C 169.085 47.465,168.981 47.723,169.029 47.975 C 169.085 48.263,169.017 48.392,168.843 48.325 C 168.679 48.262,168.556 48.446,168.535 48.786 C 168.516 49.098,168.401 49.415,168.279 49.493 C 168.157 49.570,167.899 50.090,167.706 50.650 C 167.514 51.210,167.240 51.640,167.098 51.605 C 166.956 51.571,166.905 51.647,166.983 51.775 C 167.114 51.987,166.507 53.325,166.159 53.590 C 166.077 53.653,165.976 54.009,165.933 54.382 C 165.890 54.761,165.736 55.036,165.582 55.006 C 165.421 54.974,165.362 55.094,165.440 55.297 C 165.513 55.486,165.391 55.841,165.170 56.085 C 164.950 56.329,164.861 56.532,164.973 56.536 C 165.086 56.540,165.025 56.667,164.839 56.819 C 164.652 56.970,164.467 57.349,164.427 57.660 C 164.387 57.971,164.209 58.338,164.031 58.476 C 163.854 58.614,163.708 58.900,163.708 59.111 C 163.708 59.322,163.607 59.432,163.482 59.356 C 163.358 59.279,163.243 59.425,163.228 59.681 C 163.179 60.489,163.151 60.575,162.804 60.993 C 162.617 61.217,162.429 61.602,162.386 61.848 C 162.342 62.094,162.229 62.346,162.133 62.408 C 162.038 62.470,161.889 62.776,161.802 63.086 C 161.651 63.627,161.116 64.856,160.356 66.408 C 160.161 66.804,159.942 67.092,159.868 67.046 C 159.795 67.000,159.712 67.231,159.685 67.559 C 159.658 67.886,159.534 68.255,159.411 68.379 C 159.287 68.503,159.186 68.798,159.186 69.035 C 159.186 69.272,158.934 69.664,158.625 69.907 C 158.316 70.150,158.084 70.419,158.109 70.505 C 158.202 70.832,157.505 72.775,157.332 72.669 C 157.170 72.568,157.067 73.130,157.207 73.351 C 157.239 73.400,157.098 73.629,156.896 73.860 C 156.694 74.091,156.395 74.655,156.233 75.115 C 156.071 75.575,155.877 75.913,155.801 75.866 C 155.726 75.820,155.643 76.038,155.617 76.351 C 155.557 77.079,155.371 77.376,155.085 77.200 C 154.961 77.123,154.878 77.198,154.901 77.366 C 154.986 77.982,154.884 78.259,154.629 78.102 C 154.481 78.010,154.429 78.039,154.508 78.168 C 154.586 78.293,154.503 78.589,154.324 78.825 C 154.146 79.061,153.996 79.486,153.992 79.770 C 153.989 80.053,153.844 80.340,153.671 80.406 C 153.498 80.472,153.404 80.705,153.461 80.924 C 153.518 81.142,153.405 81.453,153.210 81.615 C 153.014 81.777,152.855 82.101,152.855 82.334 C 152.855 82.568,152.753 82.759,152.629 82.759 C 152.504 82.759,152.402 82.950,152.402 83.183 C 152.402 83.417,152.263 83.724,152.091 83.866 C 151.920 84.008,151.653 84.580,151.497 85.137 C 151.341 85.694,151.125 86.150,151.016 86.150 C 150.908 86.150,150.820 86.360,150.820 86.616 C 150.820 86.872,150.739 87.032,150.640 86.971 C 150.542 86.910,150.445 87.080,150.424 87.350 C 150.404 87.619,150.281 87.875,150.151 87.918 C 150.021 87.962,149.915 88.151,149.915 88.339 C 149.915 88.527,149.770 88.951,149.592 89.281 C 149.414 89.611,149.135 90.212,148.972 90.616 C 148.808 91.020,148.597 91.351,148.503 91.351 C 148.409 91.351,148.332 91.599,148.332 91.903 C 148.332 92.207,148.237 92.514,148.121 92.586 C 147.838 92.761,147.202 94.052,147.202 94.452 C 147.202 94.634,147.091 94.701,146.941 94.608 C 146.773 94.505,146.741 94.547,146.851 94.725 C 146.953 94.889,146.805 95.242,146.491 95.587 C 146.198 95.909,146.105 96.087,146.285 95.982 C 146.472 95.874,146.399 96.092,146.116 96.489 C 145.843 96.873,145.619 97.451,145.619 97.774 C 145.619 98.097,145.517 98.361,145.393 98.361 C 145.269 98.361,145.167 98.564,145.167 98.813 C 145.167 99.062,145.072 99.265,144.956 99.265 C 144.840 99.265,144.674 99.494,144.587 99.774 C 144.500 100.054,144.250 100.690,144.031 101.187 C 143.812 101.685,143.572 102.276,143.497 102.502 C 143.418 102.740,143.251 102.844,143.098 102.749 C 142.948 102.656,142.896 102.685,142.977 102.816 C 143.128 103.060,142.109 105.281,141.617 105.782 C 141.455 105.946,141.323 106.244,141.323 106.444 C 141.323 106.982,140.808 108.310,140.599 108.310 C 140.500 108.310,140.418 108.470,140.418 108.665 C 140.418 108.861,140.270 109.169,140.089 109.350 C 139.907 109.531,139.823 109.846,139.901 110.049 C 139.996 110.297,139.955 110.365,139.778 110.256 C 139.614 110.154,139.513 110.247,139.512 110.501 C 139.512 110.726,139.359 111.202,139.173 111.558 C 138.988 111.914,138.836 112.303,138.836 112.422 C 138.836 112.541,138.708 112.780,138.553 112.953 C 138.016 113.552,137.818 113.850,137.808 114.076 C 137.798 114.299,137.396 115.286,137.002 116.051 C 136.891 116.267,136.800 116.598,136.800 116.786 C 136.800 116.974,136.699 117.128,136.574 117.128 C 136.450 117.128,136.348 117.326,136.348 117.567 C 136.348 117.809,136.249 118.067,136.128 118.142 C 136.007 118.217,135.733 118.655,135.518 119.116 C 135.304 119.578,135.072 120.006,135.003 120.068 C 134.883 120.177,134.786 120.490,134.655 121.198 C 134.621 121.385,134.479 121.512,134.340 121.481 C 134.201 121.450,134.099 121.501,134.114 121.594 C 134.205 122.171,134.057 122.565,133.804 122.419 C 133.649 122.330,133.588 122.331,133.669 122.421 C 133.820 122.590,133.237 124.436,132.841 125.042 C 132.378 125.752,132.052 126.462,132.052 126.764 C 132.052 126.936,131.950 127.077,131.826 127.077 C 131.702 127.077,131.600 127.281,131.600 127.530 C 131.600 127.778,131.510 127.982,131.400 127.982 C 131.290 127.982,131.126 128.211,131.035 128.491 C 130.944 128.770,130.842 129.050,130.808 129.112 C 130.775 129.175,130.673 129.453,130.583 129.732 C 130.492 130.010,130.349 130.195,130.264 130.143 C 130.180 130.091,130.095 130.261,130.075 130.521 C 130.056 130.781,129.946 131.054,129.833 131.127 C 129.719 131.201,129.548 131.515,129.453 131.826 C 129.241 132.517,128.513 134.206,128.062 135.048 C 127.880 135.390,127.803 135.670,127.891 135.670 C 127.980 135.670,127.904 135.848,127.723 136.066 C 127.416 136.435,126.597 138.207,126.305 139.132 C 126.226 139.383,126.066 139.479,125.892 139.379 C 125.736 139.289,125.683 139.298,125.775 139.400 C 125.868 139.502,125.821 139.732,125.673 139.911 C 125.524 140.090,125.376 140.408,125.344 140.618 C 125.285 141.007,124.744 142.293,124.383 142.906 C 124.273 143.092,123.951 143.754,123.668 144.375 C 122.647 146.615,122.465 146.947,122.311 146.851 C 122.224 146.798,122.158 146.881,122.164 147.035 C 122.192 147.808,122.084 148.121,121.842 147.972 C 121.694 147.880,121.642 147.909,121.722 148.038 C 121.799 148.163,121.716 148.459,121.538 148.695 C 121.359 148.931,121.210 149.404,121.206 149.746 C 121.202 150.088,121.116 150.367,121.016 150.367 C 120.816 150.367,120.068 151.943,120.068 152.365 C 120.068 152.510,119.973 152.629,119.857 152.629 C 119.742 152.629,119.612 152.858,119.569 153.137 C 119.527 153.417,119.371 153.622,119.223 153.592 C 119.075 153.563,119.005 153.673,119.068 153.837 C 119.131 154.001,118.924 154.651,118.608 155.280 C 118.292 155.910,118.033 156.588,118.033 156.788 C 118.033 156.988,117.929 157.151,117.803 157.151 C 117.595 157.151,117.232 157.844,116.618 159.412 C 116.497 159.723,116.307 160.154,116.197 160.370 C 115.487 161.766,114.454 161.673,130.711 161.673 C 146.064 161.673,146.071 161.673,146.071 160.763 C 146.071 160.618,146.268 160.223,146.508 159.885 C 146.749 159.548,147.014 158.998,147.098 158.663 C 147.182 158.329,147.342 158.055,147.452 158.055 C 147.563 158.055,147.654 157.801,147.654 157.490 C 147.654 157.179,147.756 156.925,147.880 156.925 C 148.005 156.925,148.106 156.721,148.106 156.473 C 148.106 156.224,148.208 156.020,148.332 156.020 C 148.457 156.020,148.559 155.810,148.559 155.552 C 148.559 155.294,148.711 154.931,148.898 154.744 C 149.084 154.558,149.237 154.209,149.237 153.969 C 149.237 153.729,149.339 153.533,149.463 153.533 C 149.587 153.533,149.689 153.324,149.689 153.067 C 149.689 152.811,149.770 152.652,149.868 152.713 C 149.967 152.774,150.064 152.603,150.084 152.334 C 150.105 152.064,150.228 151.808,150.357 151.765 C 150.487 151.722,150.594 151.551,150.594 151.384 C 150.594 151.218,150.763 150.743,150.971 150.329 C 151.655 148.964,151.724 148.794,151.724 148.473 C 151.724 148.298,151.877 148.096,152.063 148.025 C 152.250 147.953,152.402 147.688,152.402 147.435 C 152.402 147.182,152.487 146.976,152.591 146.976 C 152.695 146.976,152.779 146.828,152.779 146.648 C 152.779 146.190,153.802 144.210,154.211 143.876 C 154.398 143.723,154.478 143.595,154.389 143.591 C 154.300 143.587,154.424 143.126,154.664 142.566 C 154.904 142.007,155.027 141.547,154.938 141.545 C 154.849 141.544,154.911 141.457,155.074 141.353 C 155.238 141.249,155.394 141.022,155.420 140.848 C 155.446 140.674,155.566 140.379,155.686 140.192 C 156.156 139.464,156.473 138.770,156.473 138.470 C 156.473 138.298,156.574 138.157,156.699 138.157 C 156.823 138.157,156.925 137.939,156.925 137.673 C 156.925 137.407,157.062 137.077,157.230 136.938 C 157.398 136.800,157.766 136.102,158.048 135.387 C 158.330 134.672,158.633 134.087,158.722 134.087 C 158.811 134.087,159.079 133.477,159.318 132.730 C 159.556 131.984,159.828 131.374,159.921 131.374 C 160.014 131.374,160.090 131.176,160.090 130.935 C 160.090 130.693,160.192 130.433,160.317 130.356 C 160.441 130.279,160.543 130.030,160.543 129.802 C 160.543 129.574,160.695 129.328,160.882 129.257 C 161.068 129.185,161.221 128.990,161.221 128.823 C 161.221 128.486,161.748 127.298,162.928 124.975 C 163.357 124.129,163.708 123.239,163.708 122.996 C 163.708 122.754,163.787 122.555,163.883 122.555 C 163.979 122.555,164.245 122.174,164.473 121.707 C 164.702 121.241,164.980 120.683,165.090 120.467 C 165.201 120.251,165.291 119.914,165.291 119.718 C 165.291 119.523,165.372 119.413,165.470 119.474 C 165.569 119.534,165.665 119.376,165.684 119.122 C 165.703 118.868,165.877 118.486,166.070 118.272 C 166.264 118.059,166.422 117.785,166.422 117.664 C 166.422 117.306,166.973 116.228,167.157 116.226 C 167.250 116.225,167.326 116.036,167.326 115.805 C 167.326 115.575,167.581 114.908,167.891 114.324 C 168.202 113.739,168.457 113.113,168.457 112.933 C 168.457 112.753,168.559 112.606,168.683 112.606 C 168.807 112.606,168.909 112.459,168.909 112.279 C 168.909 112.099,169.163 111.473,169.474 110.888 C 169.785 110.304,170.040 109.688,170.040 109.520 C 170.040 109.352,170.141 109.214,170.266 109.214 C 170.390 109.214,170.492 109.012,170.492 108.764 C 170.492 108.516,170.715 108.057,170.987 107.744 C 171.259 107.430,171.517 106.948,171.559 106.673 C 171.601 106.397,171.734 106.073,171.855 105.952 C 171.976 105.831,172.075 105.549,172.075 105.325 C 172.075 105.101,172.176 104.918,172.301 104.918 C 172.425 104.918,172.527 104.774,172.527 104.597 C 172.527 104.220,173.242 102.804,173.488 102.695 C 173.581 102.653,173.657 102.392,173.657 102.115 C 173.657 101.838,173.855 101.400,174.096 101.141 C 174.337 100.882,174.473 100.608,174.398 100.533 C 174.322 100.457,174.385 100.396,174.538 100.396 C 174.690 100.396,174.764 100.314,174.702 100.213 C 174.640 100.113,174.837 99.594,175.141 99.060 C 175.444 98.525,175.692 97.844,175.692 97.546 C 175.692 97.248,175.782 97.004,175.892 97.004 C 176.002 97.004,176.154 96.826,176.229 96.608 C 176.304 96.391,176.563 95.907,176.804 95.534 C 177.045 95.161,177.250 94.624,177.259 94.340 C 177.268 94.056,177.427 93.766,177.613 93.694 C 177.799 93.623,177.904 93.489,177.847 93.396 C 177.709 93.173,178.533 91.564,178.716 91.699 C 178.794 91.756,178.810 91.738,178.751 91.658 C 178.692 91.579,178.788 91.248,178.965 90.924 C 179.141 90.599,179.452 89.927,179.656 89.429 C 179.860 88.932,180.120 88.348,180.234 88.132 C 180.348 87.916,180.441 87.585,180.441 87.397 C 180.441 87.209,180.543 87.055,180.667 87.055 C 180.791 87.055,180.893 86.800,180.893 86.490 C 180.893 86.179,180.985 85.924,181.097 85.924 C 181.209 85.924,181.487 85.475,181.714 84.925 C 181.941 84.376,182.184 83.961,182.253 84.005 C 182.323 84.048,182.401 83.835,182.426 83.533 C 182.451 83.230,182.716 82.601,183.016 82.136 C 183.316 81.670,183.698 80.882,183.865 80.384 C 184.032 79.887,184.253 79.419,184.355 79.344 C 184.457 79.270,184.563 79.062,184.589 78.883 C 184.615 78.703,184.846 78.202,185.102 77.768 C 185.358 77.334,185.635 76.710,185.718 76.380 C 185.801 76.050,186.021 75.628,186.207 75.442 C 186.394 75.255,186.546 74.963,186.546 74.793 C 186.546 74.622,186.668 74.361,186.817 74.211 C 186.967 74.062,187.011 73.940,186.915 73.940 C 186.820 73.940,186.952 73.645,187.209 73.283 C 187.466 72.922,187.677 72.472,187.677 72.282 C 187.677 72.092,187.804 71.803,187.959 71.639 C 188.115 71.474,188.277 71.136,188.319 70.888 C 188.362 70.639,188.489 70.401,188.602 70.360 C 188.715 70.318,188.807 70.096,188.807 69.864 C 188.807 69.633,188.909 69.382,189.033 69.305 C 189.158 69.228,189.259 69.011,189.259 68.823 C 189.259 68.635,189.413 68.327,189.601 68.140 C 189.788 67.952,189.884 67.705,189.813 67.591 C 189.743 67.476,189.793 67.383,189.924 67.383 C 190.056 67.383,190.167 67.256,190.172 67.100 C 190.185 66.589,190.982 65.110,191.152 65.281 C 191.244 65.372,191.256 65.285,191.180 65.087 C 191.104 64.889,191.188 64.582,191.367 64.403 C 191.546 64.224,191.763 63.753,191.850 63.356 C 191.937 62.959,192.102 62.634,192.217 62.634 C 192.331 62.634,192.425 62.431,192.425 62.182 C 192.425 61.933,192.527 61.730,192.651 61.730 C 192.776 61.730,192.877 61.475,192.877 61.164 C 192.877 60.854,192.957 60.599,193.054 60.599 C 193.151 60.599,193.427 60.090,193.669 59.469 C 193.910 58.847,194.187 58.338,194.284 58.338 C 194.381 58.338,194.460 58.103,194.460 57.815 C 194.460 57.528,194.639 57.095,194.857 56.854 C 195.347 56.315,195.864 55.239,195.979 54.523 C 196.027 54.228,196.214 53.838,196.396 53.657 C 196.577 53.475,196.673 53.242,196.609 53.138 C 196.545 53.035,196.569 52.916,196.663 52.874 C 197.012 52.719,197.593 51.182,197.692 50.152 C 197.750 49.545,198.187 48.282,198.709 47.212 C 199.609 45.365,201.090 42.228,202.423 39.344 C 202.796 38.536,203.540 36.959,204.075 35.839 C 205.020 33.864,206.620 30.456,207.686 28.151 C 207.974 27.530,208.715 25.953,209.334 24.647 C 209.952 23.341,210.789 21.560,211.194 20.690 C 211.599 19.819,212.230 18.473,212.596 17.699 C 212.961 16.924,213.196 16.185,213.116 16.056 C 213.018 15.898,208.218 15.825,198.411 15.831 L 183.851 15.841 183.704 16.626 M192.082 121.870 C 192.208 122.075,187.342 122.428,187.032 122.237 C 186.917 122.166,186.698 122.259,186.544 122.445 C 186.376 122.647,185.878 122.781,185.299 122.781 C 183.987 122.781,184.045 122.197,184.065 135.220 L 184.083 146.516 184.620 146.472 C 184.915 146.448,185.107 146.347,185.047 146.249 C 184.954 146.100,186.923 145.943,187.531 146.052 C 187.637 146.071,187.845 145.987,187.992 145.865 C 188.140 145.742,189.039 145.617,189.990 145.587 C 190.941 145.556,191.669 145.450,191.607 145.349 C 191.475 145.137,192.716 145.104,199.684 145.132 C 202.591 145.144,205.060 145.253,205.409 145.386 C 205.746 145.514,206.670 145.619,207.463 145.619 C 208.256 145.619,208.968 145.721,209.045 145.845 C 209.122 145.969,209.579 146.071,210.061 146.071 C 210.543 146.071,211.224 146.182,211.574 146.316 C 211.924 146.451,212.516 146.588,212.889 146.620 C 213.262 146.652,213.853 146.796,214.204 146.940 C 214.554 147.084,215.031 147.202,215.264 147.202 C 215.498 147.202,215.751 147.304,215.828 147.428 C 215.905 147.552,216.360 147.654,216.840 147.654 C 217.320 147.654,217.748 147.760,217.791 147.890 C 217.834 148.019,218.122 148.154,218.432 148.189 C 218.741 148.224,219.248 148.359,219.559 148.488 C 219.870 148.617,220.506 148.859,220.972 149.025 C 221.439 149.192,221.820 149.409,221.820 149.508 C 221.820 149.608,222.113 149.689,222.471 149.689 C 222.829 149.689,223.248 149.842,223.403 150.028 C 223.558 150.215,223.828 150.367,224.004 150.367 C 224.180 150.367,224.574 150.532,224.881 150.733 C 225.187 150.933,225.438 151.033,225.438 150.954 C 225.438 150.874,225.675 150.965,225.965 151.154 C 226.255 151.344,226.568 151.423,226.662 151.329 C 226.756 151.236,226.799 151.298,226.757 151.468 C 226.716 151.638,226.875 151.809,227.111 151.849 C 227.348 151.888,227.626 152.054,227.730 152.218 C 227.834 152.382,227.920 152.427,227.922 152.318 C 227.924 152.210,228.053 152.227,228.208 152.356 C 228.363 152.485,228.542 152.592,228.604 152.595 C 228.845 152.605,229.627 152.942,229.734 153.083 C 229.796 153.164,230.546 153.605,231.400 154.063 C 232.254 154.521,233.152 155.149,233.395 155.458 C 233.638 155.767,234.008 156.024,234.217 156.028 C 234.673 156.036,235.424 156.571,235.271 156.778 C 235.210 156.859,235.226 156.877,235.305 156.819 C 235.469 156.698,237.844 158.311,238.879 159.246 C 239.259 159.589,239.796 160.073,240.071 160.320 C 240.346 160.567,240.655 160.769,240.756 160.769 C 240.857 160.769,241.087 160.972,241.266 161.221 C 241.587 161.665,241.852 161.673,256.579 161.673 C 272.170 161.673,272.637 161.644,271.022 160.780 C 270.723 160.620,269.993 159.778,269.398 158.908 C 268.804 158.039,268.206 157.211,268.068 157.069 C 267.931 156.928,267.517 156.405,267.148 155.907 C 266.780 155.410,266.371 154.888,266.239 154.748 C 266.108 154.608,265.548 153.954,264.996 153.296 C 261.762 149.443,256.205 144.075,252.483 141.209 C 251.655 140.572,248.937 138.558,247.937 137.841 C 247.020 137.183,244.369 135.444,244.284 135.444 C 244.236 135.444,243.817 135.198,243.353 134.897 C 241.136 133.458,232.051 128.886,231.410 128.886 C 231.231 128.886,229.794 128.260,228.994 127.832 C 228.648 127.648,228.099 127.250,227.773 126.948 C 227.448 126.646,226.967 126.396,226.705 126.392 C 226.444 126.388,226.036 126.239,225.800 126.060 C 225.565 125.881,225.280 125.792,225.169 125.861 C 225.057 125.929,224.811 125.857,224.622 125.701 C 224.433 125.544,223.904 125.377,223.445 125.330 C 222.987 125.283,222.515 125.148,222.397 125.031 C 222.279 124.913,221.903 124.816,221.562 124.816 C 221.221 124.816,220.880 124.715,220.803 124.590 C 220.726 124.466,220.231 124.364,219.704 124.364 C 219.177 124.364,218.648 124.272,218.530 124.159 C 218.412 124.046,217.816 123.889,217.206 123.809 C 216.595 123.729,215.915 123.567,215.694 123.448 C 215.473 123.330,214.936 123.233,214.500 123.233 C 214.064 123.233,213.644 123.132,213.567 123.007 C 213.490 122.883,212.640 122.781,211.677 122.781 C 210.714 122.781,209.821 122.675,209.691 122.546 C 209.562 122.416,208.448 122.257,207.215 122.193 C 205.983 122.128,204.707 121.989,204.380 121.884 C 203.633 121.644,191.934 121.631,192.082 121.870 " stroke="none" fill="#338b3c" fill-rule="evenodd"></path><path id="path3" d="M64.537 189.289 C 64.489 189.367,65.542 189.430,66.877 189.428 C 69.419 189.425,69.121 189.314,66.286 189.208 C 65.373 189.174,64.585 189.211,64.537 189.289 M53.428 189.427 C 54.148 189.472,55.267 189.471,55.916 189.426 C 56.564 189.380,55.975 189.344,54.607 189.344 C 53.239 189.345,52.709 189.382,53.428 189.427 M76.597 189.425 C 77.125 189.473,77.990 189.473,78.519 189.425 C 79.047 189.377,78.615 189.338,77.558 189.338 C 76.501 189.338,76.068 189.377,76.597 189.425 M106.444 189.426 C 107.097 189.472,108.166 189.472,108.819 189.426 C 109.471 189.380,108.937 189.343,107.631 189.343 C 106.326 189.343,105.791 189.380,106.444 189.426 M220.639 189.425 C 221.171 189.473,221.985 189.472,222.448 189.424 C 222.911 189.375,222.476 189.336,221.481 189.337 C 220.486 189.338,220.107 189.378,220.639 189.425 M300.347 189.427 C 301.067 189.472,302.186 189.471,302.835 189.426 C 303.483 189.380,302.894 189.344,301.526 189.344 C 300.158 189.345,299.628 189.382,300.347 189.427 M312.549 189.427 C 313.265 189.471,314.435 189.471,315.150 189.427 C 315.865 189.382,315.280 189.345,313.850 189.345 C 312.419 189.345,311.834 189.382,312.549 189.427 M343.075 189.427 C 343.790 189.471,344.960 189.471,345.676 189.427 C 346.391 189.382,345.806 189.345,344.375 189.345 C 342.945 189.345,342.360 189.382,343.075 189.427 M311.010 196.382 C 311.010 200.113,311.041 201.671,311.079 199.844 C 311.117 198.018,311.117 194.965,311.079 193.061 C 311.041 191.157,311.010 192.651,311.010 196.382 M341.260 199.717 C 341.288 205.220,341.338 208.146,341.372 206.218 C 341.530 197.281,341.534 189.711,341.379 189.712 C 341.286 189.712,341.232 194.214,341.260 199.717 M347.315 199.502 L 347.428 209.271 347.487 199.675 C 347.519 194.397,347.469 190.001,347.374 189.906 C 347.279 189.812,347.253 194.130,347.315 199.502 M93.486 203.505 C 93.486 207.049,93.517 208.499,93.555 206.727 C 93.593 204.955,93.593 202.055,93.555 200.283 C 93.517 198.510,93.486 199.960,93.486 203.505 M141.399 199.661 C 141.399 200.594,141.439 200.975,141.487 200.509 C 141.536 200.042,141.536 199.279,141.487 198.813 C 141.439 198.347,141.399 198.728,141.399 199.661 M363.089 201.881 C 363.205 204.113,363.313 204.304,363.343 202.331 C 363.357 201.375,363.288 200.542,363.190 200.481 C 363.091 200.420,363.046 201.050,363.089 201.881 M173.927 201.412 C 175.505 201.451,178.151 201.451,179.806 201.413 C 181.461 201.374,180.170 201.342,176.936 201.342 C 173.703 201.342,172.348 201.374,173.927 201.412 M287.483 206.099 C 287.565 206.656,287.846 206.778,287.846 206.256 C 287.846 205.986,287.753 205.766,287.640 205.766 C 287.527 205.766,287.456 205.916,287.483 206.099 " stroke="none" fill="#1c1c14" fill-rule="evenodd"></path><path id="path4" d="M213.118 16.059 C 213.196 16.186,212.961 16.924,212.596 17.699 C 212.230 18.473,211.599 19.819,211.194 20.690 C 210.789 21.560,209.952 23.341,209.334 24.647 C 208.715 25.953,207.974 27.530,207.686 28.151 C 206.620 30.456,205.020 33.864,204.075 35.839 C 203.540 36.959,202.796 38.536,202.423 39.344 C 201.102 42.202,199.612 45.359,198.728 47.173 C 198.236 48.183,197.788 49.404,197.733 49.886 L 197.633 50.763 197.879 49.972 C 198.015 49.536,198.471 48.483,198.893 47.631 C 199.315 46.779,199.661 45.939,199.661 45.765 C 199.661 45.592,199.763 45.449,199.887 45.449 C 200.011 45.449,200.113 45.333,200.113 45.190 C 200.113 45.048,200.478 44.158,200.924 43.212 C 202.311 40.271,203.301 38.162,204.068 36.518 C 204.474 35.647,205.266 33.968,205.828 32.787 C 206.389 31.605,207.206 29.876,207.643 28.943 C 208.410 27.306,210.179 23.566,211.167 21.495 C 211.430 20.943,211.645 20.358,211.645 20.195 C 211.645 20.032,211.747 19.898,211.871 19.898 C 211.995 19.898,212.097 19.782,212.097 19.641 C 212.097 19.027,213.374 16.765,213.793 16.637 C 214.240 16.501,214.240 16.495,213.806 16.164 C 213.302 15.778,212.907 15.719,213.118 16.059 M188.412 122.259 C 188.629 122.316,188.985 122.316,189.203 122.259 C 189.421 122.202,189.243 122.155,188.807 122.155 C 188.372 122.155,188.194 122.202,188.412 122.259 M228.034 127.098 C 228.105 127.282,228.491 127.596,228.892 127.796 C 229.953 128.324,231.251 128.886,231.410 128.886 C 232.051 128.886,241.136 133.458,243.353 134.897 C 243.817 135.198,244.236 135.444,244.284 135.444 C 244.369 135.444,247.020 137.183,247.937 137.841 C 248.937 138.558,251.655 140.572,252.483 141.209 C 256.205 144.075,261.762 149.443,264.996 153.296 C 265.548 153.954,266.108 154.608,266.239 154.748 C 266.371 154.888,266.778 155.410,267.145 155.907 C 267.511 156.405,267.873 156.863,267.950 156.925 C 268.026 156.987,268.583 157.750,269.188 158.621 C 270.512 160.526,271.834 161.731,271.422 160.656 C 271.350 160.469,271.099 160.317,270.863 160.317 C 270.586 160.317,270.435 160.157,270.435 159.864 C 270.435 159.616,270.359 159.411,270.266 159.411 C 270.172 159.410,269.842 159.035,269.531 158.579 C 269.220 158.122,268.862 157.640,268.735 157.506 C 268.608 157.373,268.103 156.704,267.614 156.020 C 267.124 155.336,266.515 154.573,266.261 154.324 C 266.007 154.076,265.393 153.363,264.897 152.742 C 263.689 151.228,257.127 144.658,255.285 143.119 C 254.477 142.444,253.765 141.834,253.703 141.766 C 253.640 141.697,253.233 141.398,252.798 141.102 C 252.363 140.806,251.841 140.404,251.639 140.209 C 251.012 139.603,250.419 139.151,249.672 138.710 C 249.277 138.477,248.954 138.206,248.954 138.108 C 248.954 138.011,248.827 137.930,248.672 137.928 C 248.516 137.926,248.135 137.718,247.824 137.465 C 247.110 136.884,244.389 135.110,243.154 134.419 C 242.638 134.131,241.824 133.655,241.345 133.361 C 240.480 132.829,234.103 129.652,233.239 129.322 C 232.990 129.227,232.208 128.886,231.501 128.565 C 230.793 128.245,230.105 127.982,229.971 127.982 C 229.685 127.982,228.885 127.552,228.311 127.090 C 227.957 126.805,227.922 126.806,228.034 127.098 M197.912 145.103 C 198.255 145.155,198.764 145.153,199.042 145.100 C 199.320 145.046,199.039 145.004,198.417 145.005 C 197.795 145.007,197.568 145.051,197.912 145.103 " stroke="none" fill="#097c35" fill-rule="evenodd"></path></g></svg>